<svg xmlns="http://www.w3.org/2000/svg" width="288" height="288" viewBox="0 0 288 288">
<rect width="288" height="288" fill="#003087"/>
<g fill="#ffffff">
<g transform="translate(77.5,60.0) scale(0.2806) translate(0,506) scale(0.1,-0.1)"><path d="M2275 5043 c-4 -10 -9 -59 -12 -110 l-6 -91 -61 -7 c-148 -14 -155 -16 -161 -37 -9 -27 -9 -170 0 -197 10 -33 43 -41 124 -31 39 5 77 7 85 4 19 -7 26 -37 26 -110 0 -86 -9 -122 -32 -130 -11 -3 -45 -31 -76 -62 -92 -91 -127 -181 -120 -308 4 -94 33 -164 98 -237 47 -53 48 -48 -24 -124 -42 -45 -65 -51 -122 -34 -16 5 -54 14 -84 20 -30 7 -66 16 -80 21 -14 4 -45 13 -70 20 -25 7 -124 39 -220 70 -184 61 -288 93 -355 111 -22 6 -53 14 -70 19 -16 4 -59 13 -95 20 -36 6 -87 16 -113 21 -65 12 -332 11 -382 -1 -124 -32 -193 -63 -275 -126 -76 -58 -172 -189 -194 -264 -4 -14 -14 -50 -23 -80 -22 -77 -21 -321 1 -414 40 -165 144 -402 275 -630 102 -175 203 -395 232 -503 5 -18 14 -50 19 -70 13 -46 41 -247 38 -265 -3 -11 336 -13 1768 -16 l1770 -2 13 107 c8 60 20 133 28 163 8 30 18 69 23 85 28 105 123 312 240 520 145 257 228 453 270 635 18 77 16 320 -3 390 -60 221 -198 373 -402 445 -78 27 -138 35 -274 35 -176 0 -266 -13 -483 -71 -75 -20 -99 -28 -283 -88 -99 -32 -214 -69 -255 -81 -41 -12 -86 -26 -100 -30 -14 -5 -50 -14 -80 -21 -30 -6 -68 -15 -84 -20 -60 -18 -80 -12 -134 45 -29 30 -52 59 -52 64 0 5 10 17 21 28 12 10 35 39 51 63 121 175 75 423 -100 541 -60 41 -66 60 -60 175 4 87 13 98 73 89 76 -11 134 -9 147 4 15 15 24 153 14 206 -7 37 -6 37 -157 52 l-66 6 -6 92 c-9 132 -4 126 -107 126 -74 0 -89 -3 -95 -17z m-1307 -1414 c101 -24 118 -28 162 -40 127 -34 448 -140 545 -179 119 -48 237 -107 253 -128 6 -9 12 -39 12 -66 0 -64 24 -141 87 -286 29 -67 32 -75 52 -140 35 -114 50 -182 71 -311 13 -84 13 -252 0 -304 -47 -182 -113 -295 -216 -366 -53 -36 -128 -40 -199 -9 -59 25 -164 130 -193 192 -24 53 -29 103 -10 115 7 4 62 7 123 8 l110 0 -2 54 c-1 61 -19 127 -41 154 -13 14 -33 17 -127 17 -79 0 -115 4 -122 13 -12 16 -28 69 -44 143 -20 95 -22 97 -144 102 -127 6 -128 4 -92 -106 14 -42 26 -86 27 -97 5 -48 8 -47 -140 -39 l-140 7 0 -56 c0 -80 20 -146 49 -166 17 -11 59 -17 145 -21 67 -3 127 -9 134 -14 47 -30 71 -217 36 -271 -41 -62 -131 -72 -233 -24 -135 64 -335 304 -499 599 -13 25 -40 72 -60 105 -19 33 -65 123 -102 200 -108 222 -135 322 -135 495 0 112 5 133 42 219 19 43 76 105 127 140 42 28 153 66 216 75 54 7 255 -3 308 -15z m3212 -10 c36 -11 83 -31 106 -44 49 -29 116 -100 137 -146 38 -88 42 -106 41 -229 -2 -187 -32 -286 -164 -545 -85 -165 -89 -173 -179 -325 -149 -250 -330 -460 -444 -515 -104 -50 -200 -43 -241 20 -35 54 -12 233 35 272 8 6 65 12 134 14 90 3 127 8 146 20 29 20 49 86 49 165 l0 56 -142 -3 -143 -4 3 30 c2 17 12 55 22 85 11 30 21 71 22 90 l3 35 -107 0 c-64 -1 -112 -5 -119 -12 -10 -10 -24 -56 -35 -113 -9 -46 -27 -105 -37 -117 -7 -9 -44 -13 -122 -13 -140 0 -138 2 -174 -160 -15 -68 -6 -73 109 -68 53 3 106 1 118 -3 76 -28 -54 -242 -183 -304 -63 -29 -145 -34 -193 -10 -74 37 -162 160 -207 290 -35 99 -46 278 -24 399 27 158 43 224 76 326 24 74 30 88 72 182 11 26 21 52 21 58 0 6 4 18 9 28 19 38 31 91 31 138 0 28 6 57 13 66 15 21 150 89 252 128 11 4 31 12 45 18 52 23 394 132 525 168 212 58 413 66 545 23z"/><path d="M554 1247 c-2 -7 -3 -76 -2 -152 l3 -140 1813 -3 1812 -2 0 155 0 155 -1810 0 c-1475 0 -1812 -2 -1816 -13z"/></g>
<path transform="translate(89.848,226.000) scale(0.04468,-0.04468)" d="M248 -17Q213 -17 179.0 -11.0Q145 -5 114 10Q103 15 101.0 21.5Q99 28 99 48Q99 86 101.0 114.0Q103 142 104 154Q105 170 112 170Q119 170 119 159Q119 152 119.5 142.5Q120 133 122 122Q128 94 142.0 74.5Q156 55 176.5 43.0Q197 31 221.0 25.5Q245 20 270 20Q306 20 333.0 32.0Q360 44 377.5 62.5Q395 81 404.0 105.0Q413 129 413 153Q413 179 407.0 200.5Q401 222 387.5 242.5Q374 263 352.0 284.5Q330 306 298 333L253 370Q213 403 188.0 431.0Q163 459 148.5 485.5Q134 512 128.5 536.5Q123 561 123 587Q123 627 137.5 660.0Q152 693 179.0 717.0Q206 741 244.0 754.0Q282 767 330 767Q359 767 381.5 764.5Q404 762 423 757Q437 754 444.5 753.0Q452 752 458 752Q468 752 468 745Q468 741 466.0 715.5Q464 690 464 639Q464 616 457 616Q452 616 451.0 619.5Q450 623 449 629Q448 638 444.5 654.5Q441 671 436 679Q434 683 427.0 692.0Q420 701 405.5 710.0Q391 719 368.0 725.5Q345 732 311 732Q259 732 223.5 701.5Q188 671 188 616Q188 595 193.5 576.5Q199 558 213.0 539.0Q227 520 250.5 498.0Q274 476 310 448L338 426Q382 391 410.5 361.0Q439 331 455.5 303.5Q472 276 478.0 248.5Q484 221 484 191Q484 176 480.5 155.0Q477 134 467.5 111.0Q458 88 441.5 65.5Q425 43 399 25Q367 2 328.0 -7.5Q289 -17 248 -17Z"/>
<path transform="translate(112.635,226.000) scale(0.04468,-0.04468)" d="M391 710V287Q391 215 391.5 158.5Q392 102 396 70Q398 48 405.0 33.0Q412 18 435 15Q446 13 459.5 12.0Q473 11 480 11Q488 11 488 5Q488 -3 472 -3Q451 -3 430.0 -2.5Q409 -2 391.5 -1.5Q374 -1 362.5 -0.5Q351 0 349 0Q347 0 335.5 -0.5Q324 -1 309.0 -1.5Q294 -2 278.0 -2.5Q262 -3 251 -3Q235 -3 235 5Q235 11 243 11Q250 11 258.0 12.0Q266 13 273 15Q288 18 293.5 33.0Q299 48 302 70Q306 102 306.5 158.5Q307 215 307 287V710L159 708Q136 708 119.5 706.0Q103 704 91.0 700.5Q79 697 71.0 691.0Q63 685 57 676Q49 663 45.5 656.5Q42 650 40 645Q36 635 30 635Q25 635 25 644Q25 648 28.0 663.5Q31 679 35.0 697.0Q39 715 42.5 730.0Q46 745 47 748Q49 753 51.5 760.0Q54 767 57 767Q62 767 71.5 762.0Q81 757 101 755Q123 753 147.0 751.5Q171 750 180 750H555Q579 750 596.5 751.5Q614 753 626 755Q637 757 644.0 758.5Q651 760 654 760Q658 760 658.5 756.5Q659 753 659 748Q659 737 658.5 720.0Q658 703 657.5 686.0Q657 669 656.5 655.5Q656 642 656 638Q656 625 649 625Q645 625 643.5 628.0Q642 631 641 642L640 653Q639 664 633.0 674.0Q627 684 613.5 691.0Q600 698 576.5 702.5Q553 707 517 708Z"/>
<path transform="translate(138.817,226.000) scale(0.04468,-0.04468)" d="M95 107 322 728Q331 753 335.0 760.0Q339 767 344 767Q349 767 353.0 760.5Q357 754 366 731Q370 721 384.5 683.5Q399 646 419.5 591.5Q440 537 465.0 472.0Q490 407 514.5 343.5Q539 280 561.5 223.0Q584 166 599 128Q612 95 624.5 74.0Q637 53 647.5 41.0Q658 29 667.5 24.0Q677 19 685 17Q696 13 706.5 12.0Q717 11 725 11Q735 11 735 5Q735 0 729.0 -1.5Q723 -3 715 -3Q709 -3 693.5 -3.0Q678 -3 656.5 -3.0Q635 -3 609.5 -2.5Q584 -2 558 -1Q544 0 536.0 0.5Q528 1 528 6Q528 11 535 13Q540 15 543.0 21.5Q546 28 541 40L448 286Q445 292 439 292H224Q217 292 214 284L154 107Q140 68 140 40Q140 25 152.5 18.0Q165 11 178 11H188Q198 11 198 5Q198 -3 183 -3Q174 -3 162.0 -2.5Q150 -2 139.0 -1.5Q128 -1 118.5 -0.5Q109 0 105 0Q101 0 89.5 -0.5Q78 -1 62.0 -1.5Q46 -2 28.0 -2.5Q10 -3 -8 -3Q-27 -3 -27 5Q-27 11 -18 11Q-13 11 -4.0 11.5Q5 12 11 13Q46 18 63.5 43.5Q81 69 95 107ZM235 328H426Q432 328 430 335L335 605Q327 627 320 605L232 335Q229 328 235 328Z"/>
<path transform="translate(164.285,226.000) scale(0.04468,-0.04468)" d="M391 710V287Q391 215 391.5 158.5Q392 102 396 70Q398 48 405.0 33.0Q412 18 435 15Q446 13 459.5 12.0Q473 11 480 11Q488 11 488 5Q488 -3 472 -3Q451 -3 430.0 -2.5Q409 -2 391.5 -1.5Q374 -1 362.5 -0.5Q351 0 349 0Q347 0 335.5 -0.5Q324 -1 309.0 -1.5Q294 -2 278.0 -2.5Q262 -3 251 -3Q235 -3 235 5Q235 11 243 11Q250 11 258.0 12.0Q266 13 273 15Q288 18 293.5 33.0Q299 48 302 70Q306 102 306.5 158.5Q307 215 307 287V710L159 708Q136 708 119.5 706.0Q103 704 91.0 700.5Q79 697 71.0 691.0Q63 685 57 676Q49 663 45.5 656.5Q42 650 40 645Q36 635 30 635Q25 635 25 644Q25 648 28.0 663.5Q31 679 35.0 697.0Q39 715 42.5 730.0Q46 745 47 748Q49 753 51.5 760.0Q54 767 57 767Q62 767 71.5 762.0Q81 757 101 755Q123 753 147.0 751.5Q171 750 180 750H555Q579 750 596.5 751.5Q614 753 626 755Q637 757 644.0 758.5Q651 760 654 760Q658 760 658.5 756.5Q659 753 659 748Q659 737 658.5 720.0Q658 703 657.5 686.0Q657 669 656.5 655.5Q656 642 656 638Q656 625 649 625Q645 625 643.5 628.0Q642 631 641 642L640 653Q639 664 633.0 674.0Q627 684 613.5 691.0Q600 698 576.5 702.5Q553 707 517 708Z"/>
</g>
</svg>
