<svg xmlns="http://www.w3.org/2000/svg" width="2403" height="253" viewBox="0 0 4806.3 506.0" preserveAspectRatio="xMidYMid meet">
<g transform="translate(0.000000,506.000000) scale(0.100000,-0.100000)" fill="#ffffff" stroke="none">
<path d="M2275 5043 c-4 -10 -9 -59 -12 -110 l-6 -91 -61 -7 c-148 -14 -155 -16 -161 -37 -9 -27 -9 -170 0 -197 10 -33 43 -41 124 -31 39 5 77 7 85 4 19 -7 26 -37 26 -110 0 -86 -9 -122 -32 -130 -11 -3 -45 -31 -76 -62 -92 -91 -127 -181 -120 -308 4 -94 33 -164 98 -237 47 -53 48 -48 -24 -124 -42 -45 -65 -51 -122 -34 -16 5 -54 14 -84 20 -30 7 -66 16 -80 21 -14 4 -45 13 -70 20 -25 7 -124 39 -220 70 -184 61 -288 93 -355 111 -22 6 -53 14 -70 19 -16 4 -59 13 -95 20 -36 6 -87 16 -113 21 -65 12 -332 11 -382 -1 -124 -32 -193 -63 -275 -126 -76 -58 -172 -189 -194 -264 -4 -14 -14 -50 -23 -80 -22 -77 -21 -321 1 -414 40 -165 144 -402 275 -630 102 -175 203 -395 232 -503 5 -18 14 -50 19 -70 13 -46 41 -247 38 -265 -3 -11 336 -13 1768 -16 l1770 -2 13 107 c8 60 20 133 28 163 8 30 18 69 23 85 28 105 123 312 240 520 145 257 228 453 270 635 18 77 16 320 -3 390 -60 221 -198 373 -402 445 -78 27 -138 35 -274 35 -176 0 -266 -13 -483 -71 -75 -20 -99 -28 -283 -88 -99 -32 -214 -69 -255 -81 -41 -12 -86 -26 -100 -30 -14 -5 -50 -14 -80 -21 -30 -6 -68 -15 -84 -20 -60 -18 -80 -12 -134 45 -29 30 -52 59 -52 64 0 5 10 17 21 28 12 10 35 39 51 63 121 175 75 423 -100 541 -60 41 -66 60 -60 175 4 87 13 98 73 89 76 -11 134 -9 147 4 15 15 24 153 14 206 -7 37 -6 37 -157 52 l-66 6 -6 92 c-9 132 -4 126 -107 126 -74 0 -89 -3 -95 -17z m-1307 -1414 c101 -24 118 -28 162 -40 127 -34 448 -140 545 -179 119 -48 237 -107 253 -128 6 -9 12 -39 12 -66 0 -64 24 -141 87 -286 29 -67 32 -75 52 -140 35 -114 50 -182 71 -311 13 -84 13 -252 0 -304 -47 -182 -113 -295 -216 -366 -53 -36 -128 -40 -199 -9 -59 25 -164 130 -193 192 -24 53 -29 103 -10 115 7 4 62 7 123 8 l110 0 -2 54 c-1 61 -19 127 -41 154 -13 14 -33 17 -127 17 -79 0 -115 4 -122 13 -12 16 -28 69 -44 143 -20 95 -22 97 -144 102 -127 6 -128 4 -92 -106 14 -42 26 -86 27 -97 5 -48 8 -47 -140 -39 l-140 7 0 -56 c0 -80 20 -146 49 -166 17 -11 59 -17 145 -21 67 -3 127 -9 134 -14 47 -30 71 -217 36 -271 -41 -62 -131 -72 -233 -24 -135 64 -335 304 -499 599 -13 25 -40 72 -60 105 -19 33 -65 123 -102 200 -108 222 -135 322 -135 495 0 112 5 133 42 219 19 43 76 105 127 140 42 28 153 66 216 75 54 7 255 -3 308 -15z m3212 -10 c36 -11 83 -31 106 -44 49 -29 116 -100 137 -146 38 -88 42 -106 41 -229 -2 -187 -32 -286 -164 -545 -85 -165 -89 -173 -179 -325 -149 -250 -330 -460 -444 -515 -104 -50 -200 -43 -241 20 -35 54 -12 233 35 272 8 6 65 12 134 14 90 3 127 8 146 20 29 20 49 86 49 165 l0 56 -142 -3 -143 -4 3 30 c2 17 12 55 22 85 11 30 21 71 22 90 l3 35 -107 0 c-64 -1 -112 -5 -119 -12 -10 -10 -24 -56 -35 -113 -9 -46 -27 -105 -37 -117 -7 -9 -44 -13 -122 -13 -140 0 -138 2 -174 -160 -15 -68 -6 -73 109 -68 53 3 106 1 118 -3 76 -28 -54 -242 -183 -304 -63 -29 -145 -34 -193 -10 -74 37 -162 160 -207 290 -35 99 -46 278 -24 399 27 158 43 224 76 326 24 74 30 88 72 182 11 26 21 52 21 58 0 6 4 18 9 28 19 38 31 91 31 138 0 28 6 57 13 66 15 21 150 89 252 128 11 4 31 12 45 18 52 23 394 132 525 168 212 58 413 66 545 23z"/>
<path d="M26785 4608 c-3 -7 -4 -1041 -3 -2298 l3 -2285 63 -3 62 -3 -2 2298 -3 2298 -58 3 c-40 2 -59 -1 -62 -10z"/>
<path d="M6920 3949 c-188 -21 -378 -60 -475 -99 -11 -4 -36 -14 -55 -21 -64 -23 -224 -110 -280 -152 -183 -136 -322 -299 -422 -492 -39 -76 -95 -210 -109 -262 -25 -93 -30 -113 -43 -178 -40 -192 -41 -352 -5 -590 21 -143 59 -270 121 -405 27 -59 105 -198 118 -210 3 -3 25 -31 48 -62 104 -136 315 -309 477 -391 62 -31 92 -45 170 -77 185 -77 515 -130 810 -130 375 0 729 66 781 145 26 40 55 167 93 405 21 134 23 184 7 205 -23 31 -48 8 -63 -61 -65 -288 -204 -424 -493 -483 -145 -29 -490 -27 -610 4 -14 3 -45 11 -70 17 -129 30 -292 101 -408 179 -225 151 -378 324 -494 559 -85 174 -120 292 -148 505 -22 174 -2 454 47 635 9 30 18 67 20 83 3 15 9 30 14 33 5 3 9 13 9 22 0 39 107 224 175 302 162 188 347 291 605 339 143 26 199 31 347 31 272 0 486 -45 681 -142 187 -93 286 -258 295 -493 2 -56 4 -60 26 -60 19 0 27 7 33 30 5 17 13 152 19 300 5 149 12 298 15 332 7 76 4 78 -127 92 -87 10 -148 19 -274 42 -259 47 -645 69 -835 48z"/>
<path d="M24499 3503 c-18 -21 -37 -62 -74 -158 -37 -96 -41 -106 -53 -135 -5 -14 -25 -63 -42 -110 -18 -47 -41 -104 -51 -127 -11 -24 -19 -47 -19 -53 0 -6 -4 -18 -9 -28 -16 -31 -27 -58 -91 -227 -23 -60 -47 -121 -52 -135 -12 -29 -10 -23 -78 -200 -29 -74 -56 -145 -61 -157 -5 -13 -13 -33 -18 -45 -5 -13 -32 -84 -61 -158 -29 -74 -57 -146 -62 -160 -12 -29 -10 -23 -78 -200 -29 -74 -55 -144 -60 -155 -13 -36 -32 -80 -41 -97 -5 -10 -9 -22 -9 -28 0 -20 -62 -144 -100 -200 -56 -82 -143 -130 -238 -130 -53 0 -82 -14 -82 -40 0 -18 12 -19 379 -19 334 0 380 2 385 16 11 27 -14 43 -68 43 -90 1 -121 47 -101 150 16 78 24 108 35 135 8 19 20 53 70 190 11 30 29 80 40 110 72 197 76 207 96 245 l13 25 414 3 415 2 16 -35 c19 -42 45 -102 56 -130 9 -25 24 -62 39 -97 6 -16 16 -40 22 -55 7 -16 15 -37 19 -48 5 -11 15 -36 23 -55 61 -140 147 -369 147 -389 0 -14 -12 -37 -27 -53 -14 -15 -24 -30 -21 -34 18 -18 115 -24 401 -24 278 0 318 2 324 15 8 23 -26 44 -73 45 -165 1 -288 133 -408 435 -15 39 -35 86 -43 105 -8 19 -19 44 -23 55 -4 11 -15 36 -23 55 -9 19 -34 82 -57 140 -23 58 -48 121 -57 140 -8 19 -19 44 -23 55 -4 11 -15 36 -23 55 -9 19 -23 55 -32 80 -10 25 -23 59 -30 75 -7 17 -41 100 -75 185 -34 85 -69 171 -77 190 -8 19 -19 44 -23 55 -4 11 -15 36 -23 55 -8 19 -52 127 -97 240 -45 113 -89 221 -97 240 -8 19 -19 44 -23 55 -4 11 -15 36 -23 55 -9 19 -23 55 -33 80 -58 148 -100 195 -135 153z m-8 -554 c10 -22 25 -58 49 -124 12 -33 26 -69 30 -80 4 -11 17 -45 28 -75 11 -30 34 -92 51 -137 17 -46 45 -120 62 -165 17 -46 40 -108 51 -138 11 -30 24 -64 28 -75 50 -125 49 -124 34 -140 -13 -13 -64 -15 -339 -15 -178 0 -330 3 -339 6 -22 8 -20 26 15 124 16 47 41 119 55 160 14 41 29 84 34 95 5 11 18 49 30 85 12 36 25 74 30 85 5 11 18 49 30 85 12 36 25 74 30 85 5 11 18 49 30 85 12 36 25 74 29 85 5 11 14 33 20 48 12 29 29 32 42 6z"/>
<path d="M9650 3489 c-123 -24 -242 -56 -295 -78 -417 -176 -704 -522 -802 -968 -21 -99 -24 -387 -4 -483 16 -79 49 -199 62 -222 5 -10 9 -23 9 -29 0 -6 19 -50 41 -97 123 -256 331 -466 574 -582 93 -44 100 -46 175 -69 62 -18 92 -26 218 -50 80 -16 412 -13 507 4 115 20 192 41 280 75 92 35 302 151 325 180 3 3 16 14 29 23 52 35 159 146 221 229 56 73 153 248 181 323 19 53 29 86 57 200 46 181 44 423 -5 635 -60 261 -207 484 -428 653 -33 25 -78 55 -100 68 -80 45 -190 98 -206 99 -8 0 -19 4 -25 8 -5 5 -29 14 -54 21 -25 8 -56 17 -70 21 -14 4 -50 13 -80 18 -30 6 -79 15 -108 21 -63 13 -437 13 -502 0z m361 -124 c125 -19 161 -29 239 -62 267 -114 448 -305 557 -588 33 -86 46 -131 62 -210 27 -131 31 -181 31 -350 0 -100 -5 -208 -10 -241 -22 -125 -43 -214 -60 -259 -88 -228 -188 -364 -345 -465 -90 -59 -145 -85 -225 -108 -125 -37 -161 -42 -289 -42 -162 0 -246 15 -393 72 -318 123 -573 443 -648 813 -6 33 -17 83 -23 110 -15 71 -15 435 1 515 64 319 187 526 397 666 119 80 245 125 415 149 120 17 183 17 291 0z"/>
<path d="M16807 3493 c-6 -9 -22 -120 -37 -248 -6 -49 -15 -120 -20 -158 -6 -37 -10 -84 -10 -104 0 -19 -4 -63 -10 -97 -5 -33 -14 -106 -20 -161 -13 -121 -27 -244 -40 -345 -5 -41 -14 -117 -19 -167 -6 -51 -16 -135 -22 -185 -24 -212 -29 -257 -39 -348 -6 -52 -15 -129 -20 -170 -5 -41 -14 -122 -20 -180 -19 -182 -39 -259 -77 -292 -25 -21 -79 -38 -123 -38 -43 0 -76 -21 -67 -43 5 -14 47 -16 361 -16 297 0 355 2 360 14 8 23 -22 45 -62 45 -40 0 -103 18 -139 38 -29 16 -46 80 -38 145 3 29 10 113 16 187 6 74 14 178 19 230 5 52 14 149 19 215 6 66 15 174 21 240 6 66 15 168 21 228 9 108 22 258 35 400 4 42 11 77 16 77 4 0 38 -61 74 -136 332 -692 558 -1141 739 -1469 14 -25 37 -66 51 -92 34 -62 72 -113 91 -120 38 -15 52 12 426 777 145 299 319 654 428 878 55 111 103 202 108 202 4 0 11 -37 15 -82 7 -87 18 -212 36 -388 21 -213 46 -466 60 -615 5 -55 14 -147 20 -205 17 -171 29 -300 36 -388 6 -77 5 -84 -16 -107 -12 -13 -20 -30 -17 -38 10 -26 138 -37 440 -37 241 0 297 3 306 14 20 24 -24 46 -93 46 -95 0 -183 30 -227 77 -55 58 -79 132 -98 303 -7 58 -16 139 -21 180 -5 41 -14 120 -20 175 -6 55 -13 116 -16 135 -3 19 -9 73 -14 120 -10 90 -22 195 -40 350 -6 52 -15 133 -20 180 -6 47 -15 123 -20 170 -6 47 -15 123 -20 170 -5 47 -14 126 -20 175 -16 139 -30 263 -37 335 -8 88 -27 130 -57 130 -33 0 -45 -17 -124 -180 -38 -80 -113 -233 -165 -340 -52 -107 -133 -274 -180 -370 -207 -427 -256 -528 -354 -730 -57 -118 -132 -272 -166 -342 -34 -70 -66 -126 -72 -125 -5 2 -66 116 -135 253 -647 1284 -913 1808 -925 1820 -14 15 -71 19 -78 7z"/>
<path d="M11643 3444 c-11 -30 5 -44 54 -44 64 0 151 -24 177 -49 46 -43 46 -55 46 -1099 0 -1021 -3 -1109 -42 -1190 -16 -33 -56 -53 -117 -60 -52 -5 -87 -28 -71 -47 7 -9 140 -13 507 -16 887 -7 1007 -6 1036 10 28 15 40 40 56 116 38 184 48 302 28 329 -14 19 -14 19 -35 -2 -12 -12 -22 -33 -22 -47 0 -35 -42 -125 -78 -166 -33 -37 -91 -70 -158 -88 -59 -16 -482 -14 -559 3 -96 20 -151 49 -168 88 -47 104 -57 308 -57 1203 0 743 6 888 36 947 19 38 89 68 157 68 61 1 97 21 78 44 -18 21 -859 22 -868 0z"/>
<path d="M13489 3444 c-19 -24 7 -44 58 -44 53 0 130 -18 161 -38 63 -41 72 -156 72 -950 0 -357 4 -651 9 -679 6 -26 15 -75 21 -108 27 -143 101 -306 185 -408 138 -167 303 -257 561 -306 76 -14 405 -14 476 0 126 25 184 44 288 95 272 132 435 372 489 719 27 178 31 283 31 881 0 680 2 705 52 750 26 23 90 44 134 44 34 0 61 32 41 48 -7 6 -155 10 -379 10 -308 1 -368 -1 -378 -14 -20 -24 6 -44 57 -44 54 0 130 -18 161 -38 13 -8 30 -31 39 -51 15 -32 17 -111 17 -781 1 -571 -2 -761 -12 -815 -43 -228 -94 -352 -191 -458 -138 -149 -305 -216 -541 -217 -119 0 -151 4 -245 32 -143 43 -307 184 -381 328 -52 102 -74 185 -100 370 -17 127 -20 1339 -4 1455 19 127 49 159 164 174 53 7 84 34 57 50 -8 5 -197 9 -422 9 -341 0 -410 -2 -420 -14z"/>
<path d="M19989 3444 c-21 -25 18 -43 96 -44 116 -2 164 -45 178 -158 4 -37 11 -400 14 -807 7 -930 -8 -1293 -56 -1383 -16 -29 -51 -52 -81 -52 -51 0 -100 -20 -100 -40 0 -19 9 -20 298 -19 163 1 383 -2 487 -6 222 -8 313 1 475 43 201 52 411 242 475 429 57 164 62 348 14 471 -48 121 -141 242 -244 318 -22 16 -42 31 -45 34 -5 6 -57 37 -115 69 -16 10 -57 28 -90 41 -33 13 -61 24 -63 25 -1 1 41 47 95 101 111 112 171 198 208 299 21 58 25 88 25 172 0 101 -4 119 -42 198 -55 117 -185 223 -333 273 -140 46 -213 52 -717 51 -393 -1 -469 -3 -479 -15z m959 -120 c74 -24 124 -54 177 -108 111 -111 172 -312 145 -480 -22 -142 -104 -279 -195 -325 -47 -25 -58 -26 -244 -29 -133 -2 -203 0 -222 9 l-29 11 0 458 c0 526 -14 469 115 480 99 9 196 2 253 -16z m-59 -1075 c217 -35 273 -60 397 -184 75 -75 97 -104 131 -175 84 -178 104 -332 63 -494 -44 -174 -132 -266 -315 -326 -57 -19 -312 -17 -387 3 -74 20 -120 42 -147 71 -47 50 -51 96 -51 617 0 267 3 489 7 492 10 11 229 8 302 -4z"/>
<path d="M22203 3444 c-8 -22 16 -44 50 -44 44 0 109 -21 134 -43 54 -48 53 -29 53 -1096 -1 -1013 -4 -1120 -41 -1196 -17 -36 -57 -57 -121 -63 -50 -5 -74 -22 -65 -46 5 -12 70 -15 436 -15 406 0 431 1 431 17 0 30 -22 42 -75 42 -62 0 -151 23 -175 45 -59 53 -70 267 -70 1285 0 814 5 948 38 1005 20 34 86 64 143 64 39 1 65 22 56 45 -8 21 -786 21 -794 0z"/>
<path d="M554 1247 c-2 -7 -3 -76 -2 -152 l3 -140 1813 -3 1812 -2 0 155 0 155 -1810 0 c-1475 0 -1812 -2 -1816 -13z"/>
<path transform="translate(27871.0,948.0) scale(3.92)" d="M248 -17Q213 -17 179.0 -11.0Q145 -5 114 10Q103 15 101.0 21.5Q99 28 99 48Q99 86 101.0 114.0Q103 142 104 154Q105 170 112 170Q119 170 119 159Q119 152 119.5 142.5Q120 133 122 122Q128 94 142.0 74.5Q156 55 176.5 43.0Q197 31 221.0 25.5Q245 20 270 20Q306 20 333.0 32.0Q360 44 377.5 62.5Q395 81 404.0 105.0Q413 129 413 153Q413 179 407.0 200.5Q401 222 387.5 242.5Q374 263 352.0 284.5Q330 306 298 333L253 370Q213 403 188.0 431.0Q163 459 148.5 485.5Q134 512 128.5 536.5Q123 561 123 587Q123 627 137.5 660.0Q152 693 179.0 717.0Q206 741 244.0 754.0Q282 767 330 767Q359 767 381.5 764.5Q404 762 423 757Q437 754 444.5 753.0Q452 752 458 752Q468 752 468 745Q468 741 466.0 715.5Q464 690 464 639Q464 616 457 616Q452 616 451.0 619.5Q450 623 449 629Q448 638 444.5 654.5Q441 671 436 679Q434 683 427.0 692.0Q420 701 405.5 710.0Q391 719 368.0 725.5Q345 732 311 732Q259 732 223.5 701.5Q188 671 188 616Q188 595 193.5 576.5Q199 558 213.0 539.0Q227 520 250.5 498.0Q274 476 310 448L338 426Q382 391 410.5 361.0Q439 331 455.5 303.5Q472 276 478.0 248.5Q484 221 484 191Q484 176 480.5 155.0Q477 134 467.5 111.0Q458 88 441.5 65.5Q425 43 399 25Q367 2 328.0 -7.5Q289 -17 248 -17Z"/>
<path transform="translate(30113.3,948.0) scale(3.32)" d="M391 710V287Q391 215 391.5 158.5Q392 102 396 70Q398 48 405.0 33.0Q412 18 435 15Q446 13 459.5 12.0Q473 11 480 11Q488 11 488 5Q488 -3 472 -3Q451 -3 430.0 -2.5Q409 -2 391.5 -1.5Q374 -1 362.5 -0.5Q351 0 349 0Q347 0 335.5 -0.5Q324 -1 309.0 -1.5Q294 -2 278.0 -2.5Q262 -3 251 -3Q235 -3 235 5Q235 11 243 11Q250 11 258.0 12.0Q266 13 273 15Q288 18 293.5 33.0Q299 48 302 70Q306 102 306.5 158.5Q307 215 307 287V710L159 708Q136 708 119.5 706.0Q103 704 91.0 700.5Q79 697 71.0 691.0Q63 685 57 676Q49 663 45.5 656.5Q42 650 40 645Q36 635 30 635Q25 635 25 644Q25 648 28.0 663.5Q31 679 35.0 697.0Q39 715 42.5 730.0Q46 745 47 748Q49 753 51.5 760.0Q54 767 57 767Q62 767 71.5 762.0Q81 757 101 755Q123 753 147.0 751.5Q171 750 180 750H555Q579 750 596.5 751.5Q614 753 626 755Q637 757 644.0 758.5Q651 760 654 760Q658 760 658.5 756.5Q659 753 659 748Q659 737 658.5 720.0Q658 703 657.5 686.0Q657 669 656.5 655.5Q656 642 656 638Q656 625 649 625Q645 625 643.5 628.0Q642 631 641 642L640 653Q639 664 633.0 674.0Q627 684 613.5 691.0Q600 698 576.5 702.5Q553 707 517 708Z"/>
<path transform="translate(32265.9,948.0) scale(3.32)" d="M95 107 322 728Q331 753 335.0 760.0Q339 767 344 767Q349 767 353.0 760.5Q357 754 366 731Q370 721 384.5 683.5Q399 646 419.5 591.5Q440 537 465.0 472.0Q490 407 514.5 343.5Q539 280 561.5 223.0Q584 166 599 128Q612 95 624.5 74.0Q637 53 647.5 41.0Q658 29 667.5 24.0Q677 19 685 17Q696 13 706.5 12.0Q717 11 725 11Q735 11 735 5Q735 0 729.0 -1.5Q723 -3 715 -3Q709 -3 693.5 -3.0Q678 -3 656.5 -3.0Q635 -3 609.5 -2.5Q584 -2 558 -1Q544 0 536.0 0.5Q528 1 528 6Q528 11 535 13Q540 15 543.0 21.5Q546 28 541 40L448 286Q445 292 439 292H224Q217 292 214 284L154 107Q140 68 140 40Q140 25 152.5 18.0Q165 11 178 11H188Q198 11 198 5Q198 -3 183 -3Q174 -3 162.0 -2.5Q150 -2 139.0 -1.5Q128 -1 118.5 -0.5Q109 0 105 0Q101 0 89.5 -0.5Q78 -1 62.0 -1.5Q46 -2 28.0 -2.5Q10 -3 -8 -3Q-27 -3 -27 5Q-27 11 -18 11Q-13 11 -4.0 11.5Q5 12 11 13Q46 18 63.5 43.5Q81 69 95 107ZM235 328H426Q432 328 430 335L335 605Q327 627 320 605L232 335Q229 328 235 328Z"/>
<path transform="translate(34365.4,948.0) scale(3.32)" d="M391 710V287Q391 215 391.5 158.5Q392 102 396 70Q398 48 405.0 33.0Q412 18 435 15Q446 13 459.5 12.0Q473 11 480 11Q488 11 488 5Q488 -3 472 -3Q451 -3 430.0 -2.5Q409 -2 391.5 -1.5Q374 -1 362.5 -0.5Q351 0 349 0Q347 0 335.5 -0.5Q324 -1 309.0 -1.5Q294 -2 278.0 -2.5Q262 -3 251 -3Q235 -3 235 5Q235 11 243 11Q250 11 258.0 12.0Q266 13 273 15Q288 18 293.5 33.0Q299 48 302 70Q306 102 306.5 158.5Q307 215 307 287V710L159 708Q136 708 119.5 706.0Q103 704 91.0 700.5Q79 697 71.0 691.0Q63 685 57 676Q49 663 45.5 656.5Q42 650 40 645Q36 635 30 635Q25 635 25 644Q25 648 28.0 663.5Q31 679 35.0 697.0Q39 715 42.5 730.0Q46 745 47 748Q49 753 51.5 760.0Q54 767 57 767Q62 767 71.5 762.0Q81 757 101 755Q123 753 147.0 751.5Q171 750 180 750H555Q579 750 596.5 751.5Q614 753 626 755Q637 757 644.0 758.5Q651 760 654 760Q658 760 658.5 756.5Q659 753 659 748Q659 737 658.5 720.0Q658 703 657.5 686.0Q657 669 656.5 655.5Q656 642 656 638Q656 625 649 625Q645 625 643.5 628.0Q642 631 641 642L640 653Q639 664 633.0 674.0Q627 684 613.5 691.0Q600 698 576.5 702.5Q553 707 517 708Z"/>
<path transform="translate(36667.4,948.0) scale(3.32)" d="M262 463V287Q262 215 262.5 158.5Q263 102 267 70Q269 48 276.0 33.0Q283 18 306 15Q317 13 330.5 12.0Q344 11 351 11Q359 11 359 5Q359 -3 343 -3Q322 -3 301.0 -2.5Q280 -2 262.5 -1.5Q245 -1 233.5 -0.5Q222 0 220 0Q218 0 206.5 -0.5Q195 -1 180.0 -1.5Q165 -2 149.0 -2.5Q133 -3 122 -3Q106 -3 106 5Q106 11 114 11Q121 11 129.0 12.0Q137 13 144 15Q159 18 164.5 33.0Q170 48 173 70Q177 102 177.5 158.5Q178 215 178 287V463Q178 521 178.0 558.0Q178 595 178.0 617.5Q178 640 177.5 653.5Q177 667 176 679Q173 728 142 735Q134 737 125.0 738.0Q116 739 111 739Q103 739 103 745Q103 753 119 753Q131 753 148.0 752.5Q165 752 180.0 751.5Q195 751 206.5 750.5Q218 750 220 750Q222 750 233.5 750.5Q245 751 260.0 751.5Q275 752 291.0 752.5Q307 753 318 753Q334 753 334 745Q334 739 326 739Q321 739 315.5 738.5Q310 738 301 736Q281 732 273.5 718.5Q266 705 264 679Q263 667 262.5 653.5Q262 640 262.0 617.5Q262 595 262.0 558.0Q262 521 262 463Z"/>
<path transform="translate(38136.1,948.0) scale(3.32)" d="M248 -17Q213 -17 179.0 -11.0Q145 -5 114 10Q103 15 101.0 21.5Q99 28 99 48Q99 86 101.0 114.0Q103 142 104 154Q105 170 112 170Q119 170 119 159Q119 152 119.5 142.5Q120 133 122 122Q128 94 142.0 74.5Q156 55 176.5 43.0Q197 31 221.0 25.5Q245 20 270 20Q306 20 333.0 32.0Q360 44 377.5 62.5Q395 81 404.0 105.0Q413 129 413 153Q413 179 407.0 200.5Q401 222 387.5 242.5Q374 263 352.0 284.5Q330 306 298 333L253 370Q213 403 188.0 431.0Q163 459 148.5 485.5Q134 512 128.5 536.5Q123 561 123 587Q123 627 137.5 660.0Q152 693 179.0 717.0Q206 741 244.0 754.0Q282 767 330 767Q359 767 381.5 764.5Q404 762 423 757Q437 754 444.5 753.0Q452 752 458 752Q468 752 468 745Q468 741 466.0 715.5Q464 690 464 639Q464 616 457 616Q452 616 451.0 619.5Q450 623 449 629Q448 638 444.5 654.5Q441 671 436 679Q434 683 427.0 692.0Q420 701 405.5 710.0Q391 719 368.0 725.5Q345 732 311 732Q259 732 223.5 701.5Q188 671 188 616Q188 595 193.5 576.5Q199 558 213.0 539.0Q227 520 250.5 498.0Q274 476 310 448L338 426Q382 391 410.5 361.0Q439 331 455.5 303.5Q472 276 478.0 248.5Q484 221 484 191Q484 176 480.5 155.0Q477 134 467.5 111.0Q458 88 441.5 65.5Q425 43 399 25Q367 2 328.0 -7.5Q289 -17 248 -17Z"/>
<path transform="translate(40036.4,948.0) scale(3.32)" d="M391 710V287Q391 215 391.5 158.5Q392 102 396 70Q398 48 405.0 33.0Q412 18 435 15Q446 13 459.5 12.0Q473 11 480 11Q488 11 488 5Q488 -3 472 -3Q451 -3 430.0 -2.5Q409 -2 391.5 -1.5Q374 -1 362.5 -0.5Q351 0 349 0Q347 0 335.5 -0.5Q324 -1 309.0 -1.5Q294 -2 278.0 -2.5Q262 -3 251 -3Q235 -3 235 5Q235 11 243 11Q250 11 258.0 12.0Q266 13 273 15Q288 18 293.5 33.0Q299 48 302 70Q306 102 306.5 158.5Q307 215 307 287V710L159 708Q136 708 119.5 706.0Q103 704 91.0 700.5Q79 697 71.0 691.0Q63 685 57 676Q49 663 45.5 656.5Q42 650 40 645Q36 635 30 635Q25 635 25 644Q25 648 28.0 663.5Q31 679 35.0 697.0Q39 715 42.5 730.0Q46 745 47 748Q49 753 51.5 760.0Q54 767 57 767Q62 767 71.5 762.0Q81 757 101 755Q123 753 147.0 751.5Q171 750 180 750H555Q579 750 596.5 751.5Q614 753 626 755Q637 757 644.0 758.5Q651 760 654 760Q658 760 658.5 756.5Q659 753 659 748Q659 737 658.5 720.0Q658 703 657.5 686.0Q657 669 656.5 655.5Q656 642 656 638Q656 625 649 625Q645 625 643.5 628.0Q642 631 641 642L640 653Q639 664 633.0 674.0Q627 684 613.5 691.0Q600 698 576.5 702.5Q553 707 517 708Z"/>
<path transform="translate(42338.5,948.0) scale(3.32)" d="M262 463V287Q262 215 262.5 158.5Q263 102 267 70Q269 48 276.0 33.0Q283 18 306 15Q317 13 330.5 12.0Q344 11 351 11Q359 11 359 5Q359 -3 343 -3Q322 -3 301.0 -2.5Q280 -2 262.5 -1.5Q245 -1 233.5 -0.5Q222 0 220 0Q218 0 206.5 -0.5Q195 -1 180.0 -1.5Q165 -2 149.0 -2.5Q133 -3 122 -3Q106 -3 106 5Q106 11 114 11Q121 11 129.0 12.0Q137 13 144 15Q159 18 164.5 33.0Q170 48 173 70Q177 102 177.5 158.5Q178 215 178 287V463Q178 521 178.0 558.0Q178 595 178.0 617.5Q178 640 177.5 653.5Q177 667 176 679Q173 728 142 735Q134 737 125.0 738.0Q116 739 111 739Q103 739 103 745Q103 753 119 753Q131 753 148.0 752.5Q165 752 180.0 751.5Q195 751 206.5 750.5Q218 750 220 750Q222 750 233.5 750.5Q245 751 260.0 751.5Q275 752 291.0 752.5Q307 753 318 753Q334 753 334 745Q334 739 326 739Q321 739 315.5 738.5Q310 738 301 736Q281 732 273.5 718.5Q266 705 264 679Q263 667 262.5 653.5Q262 640 262.0 617.5Q262 595 262.0 558.0Q262 521 262 463Z"/>
<path transform="translate(43757.4,948.0) scale(3.32)" d="M515 -17Q402 -17 323.5 10.0Q245 37 185 91Q149 124 125.5 161.0Q102 198 88.5 236.0Q75 274 69.5 312.5Q64 351 64 387Q64 412 69.0 445.5Q74 479 86.5 515.5Q99 552 121.0 589.5Q143 627 176 660Q198 682 227.0 702.0Q256 722 293.0 736.0Q330 750 376.5 758.5Q423 767 481 767Q511 767 550.0 764.5Q589 762 626 755Q655 750 679.5 746.0Q704 742 728 740Q736 739 738.5 736.5Q741 734 741 729Q741 723 739.5 711.5Q738 700 736 673Q735 661 734.5 645.5Q734 630 734.0 615.0Q734 600 733.5 588.0Q733 576 733 570Q732 549 724 549Q716 549 716 570Q716 599 705.0 627.0Q694 655 674 672Q648 695 594.0 712.0Q540 729 474 729Q424 729 387.0 722.5Q350 716 322.5 705.5Q295 695 276.0 682.0Q257 669 244 656Q189 603 171.5 537.5Q154 472 154 395Q154 323 180.5 257.0Q207 191 254.5 140.5Q302 90 368.5 59.5Q435 29 515 29Q572 29 615.5 38.5Q659 48 689 79Q705 96 714.5 122.5Q724 149 726 163Q729 178 736 178Q740 178 741.5 173.5Q743 169 743 163Q743 160 741.0 144.5Q739 129 736.0 109.0Q733 89 729.0 68.5Q725 48 721 35Q716 21 712.5 16.5Q709 12 695 6Q680 0 659.0 -4.5Q638 -9 614.0 -11.5Q590 -14 564.5 -15.5Q539 -17 515 -17Z"/>
<path transform="translate(46437.9,948.0) scale(3.32)" d="M248 -17Q213 -17 179.0 -11.0Q145 -5 114 10Q103 15 101.0 21.5Q99 28 99 48Q99 86 101.0 114.0Q103 142 104 154Q105 170 112 170Q119 170 119 159Q119 152 119.5 142.5Q120 133 122 122Q128 94 142.0 74.5Q156 55 176.5 43.0Q197 31 221.0 25.5Q245 20 270 20Q306 20 333.0 32.0Q360 44 377.5 62.5Q395 81 404.0 105.0Q413 129 413 153Q413 179 407.0 200.5Q401 222 387.5 242.5Q374 263 352.0 284.5Q330 306 298 333L253 370Q213 403 188.0 431.0Q163 459 148.5 485.5Q134 512 128.5 536.5Q123 561 123 587Q123 627 137.5 660.0Q152 693 179.0 717.0Q206 741 244.0 754.0Q282 767 330 767Q359 767 381.5 764.5Q404 762 423 757Q437 754 444.5 753.0Q452 752 458 752Q468 752 468 745Q468 741 466.0 715.5Q464 690 464 639Q464 616 457 616Q452 616 451.0 619.5Q450 623 449 629Q448 638 444.5 654.5Q441 671 436 679Q434 683 427.0 692.0Q420 701 405.5 710.0Q391 719 368.0 725.5Q345 732 311 732Q259 732 223.5 701.5Q188 671 188 616Q188 595 193.5 576.5Q199 558 213.0 539.0Q227 520 250.5 498.0Q274 476 310 448L338 426Q382 391 410.5 361.0Q439 331 455.5 303.5Q472 276 478.0 248.5Q484 221 484 191Q484 176 480.5 155.0Q477 134 467.5 111.0Q458 88 441.5 65.5Q425 43 399 25Q367 2 328.0 -7.5Q289 -17 248 -17Z"/>
</g>
</svg>
