<svg width="320" height="53" viewBox="0 0 320 53" fill="none" xmlns="http://www.w3.org/2000/svg">
<g clip-path="url(#clip0_2804_5801)">
<path d="M41.7311 24.0303C39.4092 21.9911 38.7935 19.3351 38.7935 17.0349C38.7935 15.4227 39.2909 12.6246 41.5653 10.5378C43.2711 8.97273 45.5217 8.02429 49.0517 8.02429C50.5205 8.02429 51.3973 8.11925 52.4871 8.26139C53.3873 8.37981 54.1454 8.59344 54.8561 8.66439C55.1167 8.68816 55.2116 8.80683 55.2116 8.94896C55.2116 9.13888 55.1405 9.42321 55.093 10.2532C55.0458 11.0358 55.0693 12.34 55.0222 12.8142C54.9984 13.17 54.951 13.3597 54.7378 13.3597C54.5481 13.3597 54.5009 13.17 54.5009 12.8379C54.4772 12.1029 54.1691 11.2729 53.5767 10.6565C52.7949 9.82645 50.9472 9.18612 48.7674 9.18612C46.7065 9.18612 45.3559 9.70779 44.3135 10.6565C42.5841 12.245 42.134 14.4977 42.134 16.7978C42.134 22.4415 46.4222 25.2399 49.5967 25.2399C51.7053 25.2399 52.9846 25.0025 53.9322 23.9116C54.3349 23.4612 54.643 22.7736 54.7378 22.3465C54.8087 21.9673 54.8561 21.8723 55.0458 21.8723C55.2116 21.8723 55.259 22.0382 55.259 22.2281C55.259 22.5127 54.9747 24.5755 54.7378 25.3818C54.6192 25.7851 54.5246 25.9034 54.1217 26.0699C53.1741 26.4486 51.3735 26.6151 49.8573 26.6151C46.6116 26.6151 43.8871 25.9034 41.7311 24.0303Z" fill="#000D74"/>
<path d="M57.5635 18.744C57.5635 15.3495 59.9491 10.9485 66.1942 10.9485C71.3866 10.9485 74.6144 13.8278 74.6144 18.3929C74.6144 22.9577 71.2932 26.5395 65.9837 26.5395C59.996 26.5395 57.5635 22.2789 57.5635 18.744ZM71.5503 19.1185C71.5503 14.7173 68.9073 12.0018 65.586 12.0018C63.2938 12.0018 60.6042 13.219 60.6042 18.1352C60.6042 22.232 62.943 25.4627 66.8256 25.4627C68.2759 25.4627 71.5503 24.7839 71.5503 19.1185Z" fill="#000D74"/>
<path d="M81.2092 20.4995C81.2092 23.0515 81.2092 24.3155 81.6537 24.6901C82.0045 24.9943 82.7998 25.1116 84.3901 25.1116C85.4894 25.1116 86.2847 25.0881 86.7992 24.5497C87.0566 24.2921 87.2671 23.7302 87.314 23.3557C87.3371 23.1684 87.384 23.0515 87.5477 23.0515C87.6882 23.0515 87.7348 23.2622 87.7348 23.4961C87.7348 23.7302 87.5945 25.2048 87.4308 25.7904C87.2906 26.2353 87.1969 26.329 86.121 26.329C84.6475 26.329 83.4545 26.3056 82.4255 26.2587C81.3963 26.2353 80.531 26.2118 79.6888 26.2118C79.4551 26.2118 79.0106 26.2353 78.5195 26.2353C78.0282 26.2587 77.5137 26.2821 77.0926 26.2821C76.8355 26.2821 76.6949 26.2118 76.6949 26.0711C76.6949 25.9773 76.7652 25.8607 77.0226 25.8607C77.3266 25.8607 77.5605 25.8372 77.7476 25.7904C78.1688 25.6972 78.2856 25.322 78.3556 24.737C78.4492 23.8941 78.4492 22.3258 78.4492 20.4995V16.9881C78.4492 13.9681 78.4492 13.4063 78.4259 12.7744C78.379 12.0953 78.1918 11.8846 77.5371 11.6976C77.3734 11.6507 77.116 11.6272 76.8586 11.6272C76.6249 11.6272 76.5078 11.5569 76.5078 11.4165C76.5078 11.2761 76.6484 11.2292 76.9523 11.2292C77.9114 11.2292 79.2211 11.2761 79.7825 11.2761C80.2736 11.2761 81.9576 11.2292 82.7529 11.2292C83.0569 11.2292 83.1974 11.2761 83.1974 11.4165C83.1974 11.5569 83.0803 11.6272 82.8232 11.6272C82.5892 11.6272 82.2619 11.6507 82.0279 11.6976C81.4666 11.7911 81.3028 12.0722 81.256 12.7744C81.2092 13.4063 81.2092 13.9681 81.2092 16.9881V20.4995Z" fill="#000D74"/>
<path d="M90.0031 16.9881C90.0031 13.9681 90.0265 13.4063 89.9797 12.7744C89.9329 12.0722 89.7457 11.8846 89.091 11.6976C88.9273 11.6507 88.5762 11.6272 88.2957 11.6272C88.0616 11.6272 87.9448 11.5569 87.9448 11.4165C87.9448 11.2761 88.0851 11.2292 88.389 11.2292C89.4884 11.2292 90.8684 11.2761 91.4766 11.2761C91.9911 11.2761 93.3712 11.2292 94.1197 11.2292C94.4236 11.2292 94.5639 11.2761 94.5639 11.4165C94.5639 11.5569 94.447 11.6272 94.2365 11.6272C94.0025 11.6272 93.8857 11.6507 93.6283 11.6976C93.0904 11.7911 92.9267 12.0722 92.8798 12.7744C92.8333 13.4063 92.8333 13.9681 92.8333 16.9881V19.7739C92.8333 22.6769 93.3946 23.8006 94.4002 24.5966C95.3124 25.322 96.2948 25.3924 96.9964 25.3924C97.8854 25.3924 98.9378 25.135 99.7566 24.339C100.903 23.2622 100.949 21.5297 100.949 19.4931V16.9881C100.949 13.9681 100.926 13.4063 100.903 12.7744C100.856 12.0953 100.692 11.8846 100.037 11.6976C99.8734 11.6507 99.5226 11.6272 99.2887 11.6272C99.0547 11.6272 98.9378 11.5569 98.9378 11.4165C98.9378 11.2761 99.0781 11.2292 99.3589 11.2292C100.411 11.2292 101.791 11.2761 101.815 11.2761C102.049 11.2761 103.429 11.2292 104.224 11.2292C104.504 11.2292 104.645 11.2761 104.645 11.4165C104.645 11.5569 104.528 11.6272 104.294 11.6272C104.06 11.6272 103.943 11.6507 103.686 11.6976C103.125 11.7911 102.984 12.0722 102.938 12.7744C102.914 13.4063 102.891 13.9681 102.891 16.9881V19.1185C102.891 21.3425 102.657 23.6836 100.926 25.1116C99.4758 26.329 97.9088 26.5395 96.5756 26.5395C95.4995 26.5395 93.3712 26.4926 91.8743 25.1819C90.8216 24.2686 90.0031 22.7938 90.0031 19.9146V16.9881Z" fill="#000D74"/>
<path d="M108.465 11.2995C108.512 10.9716 108.699 10.7843 108.863 10.7843C109.074 10.7843 109.214 10.8781 109.494 11.4165L115.014 22.513L120.534 11.2761C120.698 10.9484 120.885 10.7843 121.072 10.7843C121.236 10.7843 121.47 10.995 121.54 11.4165L123.411 23.7068C123.598 24.9476 123.786 25.4861 124.417 25.6736C125.002 25.8372 125.329 25.8606 125.586 25.8606C125.773 25.8606 125.914 25.931 125.914 26.0476C125.914 26.2118 125.68 26.2821 125.376 26.2821C124.861 26.2821 121.938 26.1883 121.119 26.1414C120.628 26.118 120.511 26.0242 120.511 25.9075C120.511 25.8137 120.605 25.7434 120.745 25.6971C120.862 25.6502 120.908 25.4157 120.838 24.8539L119.692 16.2389H119.622L115.202 25.135C114.734 26.0711 114.617 26.2586 114.383 26.2586C114.126 26.2586 113.892 25.8606 113.564 25.2516C113.073 24.3389 111.436 21.2955 111.202 20.7337C111.038 20.3591 109.822 17.8544 109.144 16.4731H109.074L108.091 24.2451C108.044 24.5966 108.021 24.8539 108.021 25.1819C108.021 25.5564 108.302 25.6971 108.653 25.7669C109.003 25.8372 109.19 25.8606 109.378 25.8606C109.565 25.8606 109.705 25.9538 109.705 26.0476C109.705 26.2352 109.518 26.2821 109.214 26.2821C108.348 26.2821 107.413 26.2118 107.039 26.2118C106.641 26.2118 105.659 26.2821 105.004 26.2821C104.793 26.2821 104.629 26.2352 104.629 26.0476C104.629 25.9538 104.747 25.8606 104.957 25.8606C105.121 25.8606 105.261 25.8606 105.588 25.8137C106.15 25.7434 106.337 24.9476 106.431 24.2921L108.465 11.2995Z" fill="#000D74"/>
<path d="M129.281 16.9881C129.281 13.9681 129.281 13.4063 129.257 12.7744C129.211 12.0953 129.024 11.8846 128.369 11.6976C128.205 11.6507 127.854 11.6272 127.55 11.6272C127.339 11.6272 127.199 11.5569 127.199 11.4165C127.199 11.2761 127.363 11.2292 127.667 11.2292C128.743 11.2292 130.053 11.2761 130.45 11.2761C131.479 11.2761 132.836 11.2292 133.538 11.2292C137.257 11.2292 137.912 13.1489 137.912 14.2023C137.912 15.7474 136.766 16.9415 135.596 17.6906C137.28 18.229 139.385 19.6569 139.385 21.9978C139.385 24.1282 137.701 26.329 133.912 26.329C133.678 26.329 132.976 26.3056 132.275 26.2587C131.573 26.2353 130.848 26.2118 130.52 26.2118C130.287 26.2118 129.842 26.2353 129.351 26.2353C128.86 26.2587 128.345 26.2821 127.924 26.2821C127.667 26.2821 127.527 26.2118 127.527 26.0711C127.527 25.9773 127.597 25.8607 127.854 25.8607C128.158 25.8607 128.392 25.8372 128.579 25.7904C129 25.6972 129.117 25.322 129.187 24.737C129.281 23.8941 129.281 22.3258 129.281 20.4995V16.9881ZM131.947 17.316C131.947 17.4799 132.017 17.503 132.088 17.5265C132.275 17.5734 132.579 17.5968 133.047 17.5968C133.725 17.5968 134.31 17.5265 134.66 17.2457C135.198 16.8243 135.596 16.0986 135.596 15.1387C135.596 13.8043 134.801 12.1422 133.023 12.1422C132.742 12.1422 132.345 12.1422 132.135 12.1891C131.994 12.2125 131.947 12.306 131.947 12.5168V17.316ZM131.947 23.1684C131.947 24.4794 132.017 24.8774 132.672 25.135C133.21 25.3454 133.678 25.3689 134.146 25.3689C135.245 25.3689 136.672 24.7604 136.672 22.5599C136.672 21.6467 136.274 20.0784 134.731 19.0248C134.31 18.7205 133.748 18.5098 132.953 18.5098H132.064C131.994 18.5098 131.947 18.5332 131.947 18.6501V23.1684Z" fill="#000D74"/>
<path d="M143.314 16.9881C143.314 13.9681 143.314 13.4063 143.291 12.7744C143.244 12.0953 143.033 11.8614 142.589 11.7207C142.355 11.6507 142.098 11.6272 141.841 11.6272C141.63 11.6272 141.513 11.5803 141.513 11.3931C141.513 11.2761 141.677 11.2292 142.004 11.2292C142.776 11.2292 144.179 11.2761 144.764 11.2761C145.279 11.2761 146.612 11.2292 147.407 11.2292C147.665 11.2292 147.828 11.2761 147.828 11.3931C147.828 11.5803 147.711 11.6272 147.501 11.6272C147.29 11.6272 147.127 11.6507 146.893 11.6976C146.331 11.7911 146.168 12.0722 146.121 12.7744C146.074 13.4063 146.074 13.9681 146.074 16.9881V20.4995C146.074 22.4192 146.074 24.0113 146.168 24.8539C146.238 25.3923 146.378 25.6972 146.986 25.7904C147.267 25.8372 147.735 25.8607 148.039 25.8607C148.272 25.8607 148.366 25.9773 148.366 26.0711C148.366 26.2118 148.202 26.2821 147.969 26.2821C146.612 26.2821 145.209 26.2118 144.647 26.2118C144.179 26.2118 142.776 26.2821 141.957 26.2821C141.7 26.2821 141.56 26.2118 141.56 26.0711C141.56 25.9773 141.63 25.8607 141.887 25.8607C142.191 25.8607 142.425 25.8372 142.613 25.7904C143.033 25.6972 143.15 25.4158 143.221 24.8305C143.314 24.0113 143.314 22.4192 143.314 20.4995V16.9881Z" fill="#000D74"/>
<path d="M154.322 21.2721C154.205 21.2721 154.182 21.2956 154.135 21.4128L153.036 24.0813C152.825 24.5731 152.732 25.0647 152.732 25.2985C152.732 25.6503 152.919 25.8606 153.55 25.8606H153.854C154.111 25.8606 154.158 25.9539 154.158 26.0711C154.158 26.2353 154.041 26.2821 153.831 26.2821C153.152 26.2821 152.194 26.2118 151.539 26.2118C151.328 26.2118 150.229 26.2821 149.153 26.2821C148.896 26.2821 148.779 26.2353 148.779 26.0711C148.779 25.9539 148.849 25.8606 149.013 25.8606C149.2 25.8606 149.434 25.8372 149.621 25.8372C150.556 25.6971 150.907 25.0881 151.328 24.0813L156.708 11.5569C156.942 10.995 157.106 10.7609 157.316 10.7609C157.62 10.7609 157.714 10.9484 157.924 11.393C158.415 12.4933 161.853 20.6402 163.163 23.6602C163.958 25.4627 164.543 25.7205 164.918 25.7904C165.222 25.8372 165.455 25.8606 165.69 25.8606C165.876 25.8606 165.97 25.931 165.97 26.0711C165.97 26.2353 165.853 26.2821 165.081 26.2821C164.356 26.2821 162.859 26.2821 161.128 26.2353C160.754 26.2118 160.521 26.2118 160.521 26.0711C160.521 25.9539 160.567 25.8841 160.778 25.8606C160.918 25.8372 161.058 25.6503 160.964 25.4157L159.374 21.4128C159.328 21.2956 159.257 21.2721 159.164 21.2721H154.322ZM158.719 20.1719C158.813 20.1719 158.836 20.125 158.813 20.0549L156.871 14.9983C156.848 14.928 156.824 14.811 156.778 14.811C156.708 14.811 156.685 14.928 156.661 14.9983L154.673 20.0315C154.626 20.125 154.673 20.1719 154.743 20.1719H158.719Z" fill="#000D74"/>
<path d="M175.329 15.2327C175.329 11.6287 175.329 10.9645 175.282 10.2057C175.234 9.39942 175.044 9.02019 174.263 8.85428C174.073 8.8068 173.67 8.78309 173.339 8.78309C173.078 8.78309 172.936 8.73562 172.936 8.56971C172.936 8.4035 173.102 8.35632 173.457 8.35632C174.713 8.35632 176.206 8.42727 176.916 8.42727C177.485 8.42727 178.978 8.35632 179.83 8.35632C180.186 8.35632 180.352 8.4035 180.352 8.56971C180.352 8.73562 180.209 8.78309 179.973 8.78309C179.712 8.78309 179.57 8.8068 179.286 8.85428C178.646 8.97271 178.456 9.37601 178.409 10.2057C178.362 10.9645 178.362 11.6287 178.362 15.2327V18.5525C178.362 21.991 179.049 23.4374 180.209 24.3858C181.276 25.2633 182.365 25.3583 183.171 25.3583C184.213 25.3583 185.492 25.0265 186.44 24.0775C187.743 22.7736 187.815 20.6393 187.815 18.197V15.2327C187.815 11.6287 187.815 10.9645 187.767 10.2057C187.72 9.39942 187.53 9.02019 186.748 8.85428C186.559 8.8068 186.156 8.78309 185.895 8.78309C185.635 8.78309 185.492 8.73562 185.492 8.56971C185.492 8.4035 185.658 8.35632 185.99 8.35632C187.198 8.35632 188.691 8.42727 188.715 8.42727C188.999 8.42727 190.492 8.35632 191.416 8.35632C191.747 8.35632 191.913 8.4035 191.913 8.56971C191.913 8.73562 191.771 8.78309 191.487 8.78309C191.226 8.78309 191.084 8.8068 190.8 8.85428C190.159 8.97271 189.97 9.37601 189.923 10.2057C189.875 10.9645 189.875 11.6287 189.875 15.2327V17.77C189.875 20.4022 189.615 23.2003 187.625 24.9075C185.943 26.3536 184.237 26.615 182.697 26.615C181.441 26.615 179.167 26.5435 177.437 24.9787C176.229 23.8879 175.329 22.1332 175.329 18.695V15.2327Z" fill="#000D74"/>
<path d="M196.699 23.5664C196.746 25.1115 197.003 25.5799 197.401 25.7205C197.752 25.8372 198.15 25.8606 198.477 25.8606C198.711 25.8606 198.828 25.9538 198.828 26.071C198.828 26.2352 198.64 26.2821 198.36 26.2821C197.027 26.2821 196.068 26.2117 195.693 26.2117C195.507 26.2117 194.524 26.2821 193.471 26.2821C193.191 26.2821 193.003 26.2586 193.003 26.071C193.003 25.9538 193.144 25.8606 193.331 25.8606C193.612 25.8606 193.986 25.8372 194.267 25.7668C194.805 25.6267 194.875 25.088 194.898 23.3556L195.085 11.5569C195.085 11.1588 195.226 10.8781 195.436 10.8781C195.693 10.8781 195.974 11.1823 196.325 11.5334C196.582 11.791 199.67 14.9513 202.664 17.8775C204.067 19.2589 206.804 22.0681 207.108 22.3491H207.201L206.991 13.5C206.967 12.2825 206.78 11.9314 206.289 11.7441C205.985 11.6272 205.494 11.6272 205.213 11.6272C204.956 11.6272 204.886 11.5334 204.886 11.4165C204.886 11.2526 205.096 11.2292 205.4 11.2292C206.476 11.2292 207.575 11.2761 208.02 11.2761C208.254 11.2761 209.026 11.2292 210.031 11.2292C210.312 11.2292 210.499 11.2526 210.499 11.4165C210.499 11.5334 210.382 11.6272 210.148 11.6272C209.938 11.6272 209.774 11.6272 209.517 11.6975C208.955 11.8614 208.791 12.2124 208.768 13.3362L208.534 25.8841C208.534 26.329 208.37 26.5159 208.207 26.5159C207.856 26.5159 207.575 26.3056 207.365 26.0945C206.078 24.9008 203.505 22.4426 201.354 20.3591C199.108 18.2055 196.933 15.7943 196.536 15.4432H196.465L196.699 23.5664Z" fill="#000D74"/>
<path d="M214.483 16.9881C214.483 13.9681 214.483 13.4063 214.46 12.7744C214.413 12.0953 214.203 11.8614 213.758 11.7207C213.524 11.6507 213.267 11.6272 213.01 11.6272C212.799 11.6272 212.682 11.5803 212.682 11.3931C212.682 11.2761 212.846 11.2292 213.173 11.2292C213.945 11.2292 215.349 11.2761 215.933 11.2761C216.448 11.2761 217.781 11.2292 218.576 11.2292C218.833 11.2292 218.997 11.2761 218.997 11.3931C218.997 11.5803 218.88 11.6272 218.67 11.6272C218.459 11.6272 218.296 11.6507 218.061 11.6976C217.5 11.7911 217.336 12.0722 217.29 12.7744C217.243 13.4063 217.243 13.9681 217.243 16.9881V20.4995C217.243 22.4192 217.243 24.0113 217.336 24.8539C217.407 25.3923 217.547 25.6972 218.155 25.7904C218.436 25.8372 218.903 25.8607 219.207 25.8607C219.442 25.8607 219.535 25.9773 219.535 26.0711C219.535 26.2118 219.371 26.2821 219.138 26.2821C217.781 26.2821 216.378 26.2118 215.816 26.2118C215.349 26.2118 213.945 26.2821 213.127 26.2821C212.869 26.2821 212.729 26.2118 212.729 26.0711C212.729 25.9773 212.799 25.8607 213.056 25.8607C213.36 25.8607 213.594 25.8372 213.781 25.7904C214.202 25.6972 214.319 25.4158 214.389 24.8305C214.483 24.0113 214.483 22.4192 214.483 20.4995V16.9881Z" fill="#000D74"/>
<path d="M222.661 13.1724C222.193 12.0722 221.889 11.8846 221.14 11.6976C220.836 11.6272 220.509 11.6272 220.345 11.6272C220.158 11.6272 220.111 11.5335 220.111 11.4165C220.111 11.2527 220.322 11.2292 220.626 11.2292C221.725 11.2292 222.895 11.2761 223.62 11.2761C224.134 11.2761 225.21 11.2292 226.24 11.2292C226.497 11.2292 226.73 11.2761 226.73 11.4165C226.73 11.5569 226.59 11.6272 226.403 11.6272C226.076 11.6272 225.772 11.6507 225.608 11.7676C225.468 11.8614 225.397 11.9783 225.397 12.1656C225.397 12.4232 225.584 12.9617 225.865 13.6639L229.327 22.5831H229.397C230.286 20.523 232.929 14.1088 233.42 12.7978C233.513 12.5402 233.607 12.236 233.607 12.0722C233.607 11.8614 233.513 11.7911 233.327 11.7207C233.092 11.6507 232.765 11.6272 232.508 11.6272C232.32 11.6272 232.157 11.5569 232.157 11.4165C232.157 11.2761 232.344 11.2292 232.741 11.2292C233.771 11.2292 234.683 11.2761 234.94 11.2761C235.291 11.2761 236.25 11.2292 236.881 11.2292C237.139 11.2292 237.303 11.2761 237.303 11.4165C237.303 11.5569 237.185 11.6272 236.975 11.6272C236.764 11.6272 236.32 11.6038 235.97 11.8614C235.712 12.0487 235.431 12.3529 234.894 13.617C234.075 15.4898 233.537 16.5669 232.414 19.0013C231.105 21.9043 230.145 24.0814 229.677 25.0881C229.163 26.2353 228.976 26.5395 228.695 26.5395C228.415 26.5395 228.251 26.2821 227.853 25.3454L222.661 13.1724Z" fill="#000D74"/>
<path d="M239.5 16.9881C239.5 13.9682 239.5 13.4063 239.477 12.7744C239.43 12.0953 239.243 11.8846 238.588 11.6976C238.424 11.6507 238.074 11.6273 237.77 11.6273C237.559 11.6273 237.419 11.557 237.419 11.4166C237.419 11.2762 237.582 11.2293 237.886 11.2293C238.962 11.2293 240.272 11.2762 240.857 11.2762C241.512 11.2762 246.072 11.2996 246.47 11.2762C246.844 11.2527 247.172 11.1824 247.336 11.1589C247.453 11.1355 247.569 11.0654 247.663 11.0654C247.78 11.0654 247.804 11.1589 247.804 11.2527C247.804 11.3931 247.687 11.6273 247.64 12.5402C247.616 12.751 247.569 13.6171 247.523 13.8512C247.5 13.945 247.453 14.1789 247.289 14.1789C247.149 14.1789 247.126 14.0854 247.126 13.9216C247.126 13.7809 247.102 13.4298 246.985 13.1959C246.821 12.8445 246.658 12.5637 245.629 12.4699C245.278 12.4233 242.822 12.3764 242.4 12.3764C242.307 12.3764 242.261 12.4468 242.261 12.5637V17.4799C242.261 17.5969 242.284 17.6906 242.4 17.6906C242.868 17.6906 245.535 17.6906 246.003 17.6438C246.494 17.5969 246.798 17.55 246.985 17.3393C247.149 17.1989 247.219 17.0819 247.312 17.0819C247.406 17.0819 247.476 17.1754 247.476 17.2926C247.476 17.4096 247.429 17.7372 247.312 18.744C247.265 19.142 247.219 19.9381 247.219 20.0784C247.219 20.2423 247.195 20.5231 247.008 20.5231C246.868 20.5231 246.821 20.453 246.821 20.3592C246.798 20.1485 246.798 19.8911 246.751 19.6335C246.634 19.2355 246.377 18.9313 245.605 18.8609C245.231 18.8144 242.892 18.7675 242.377 18.7675C242.284 18.7675 242.261 18.8609 242.261 18.9782V20.5699C242.261 21.2487 242.237 22.9345 242.261 23.5195C242.307 24.8774 242.939 25.182 245.044 25.182C245.582 25.182 246.447 25.1585 246.985 24.9243C247.5 24.6901 247.733 24.2687 247.874 23.4495C247.921 23.2388 247.967 23.145 248.108 23.145C248.272 23.145 248.294 23.4026 248.294 23.6133C248.294 24.0582 248.131 25.4158 248.014 25.8138C247.874 26.3291 247.687 26.3291 246.915 26.3291C245.371 26.3291 244.132 26.3057 243.126 26.2587C242.12 26.2353 241.348 26.2118 240.74 26.2118C240.506 26.2118 240.061 26.2353 239.571 26.2353C239.079 26.2587 238.564 26.2822 238.144 26.2822C237.886 26.2822 237.746 26.2118 237.746 26.0711C237.746 25.9774 237.816 25.8607 238.074 25.8607C238.378 25.8607 238.611 25.8373 238.799 25.7904C239.22 25.6972 239.336 25.322 239.407 24.7371C239.5 23.8941 239.5 22.3258 239.5 20.4996V16.9881Z" fill="#000D74"/>
<path d="M253.104 16.9881C253.104 13.9681 253.104 13.4063 253.08 12.7744C253.034 12.0953 252.847 11.8846 252.191 11.6976C252.028 11.6507 251.677 11.6272 251.373 11.6272C251.162 11.6272 251.022 11.5569 251.022 11.4165C251.022 11.2761 251.186 11.2292 251.49 11.2292C252.566 11.2292 253.876 11.2761 254.297 11.2761C254.998 11.2761 256.87 11.2292 257.501 11.2292C258.811 11.2292 260.308 11.3462 261.407 12.0722C261.992 12.4699 262.857 13.4766 262.857 14.811C262.857 16.2859 262.015 17.5968 260.004 19.212C261.828 21.4594 263.278 23.2622 264.518 24.5028C265.664 25.6503 266.389 25.7434 266.717 25.8138C266.927 25.8607 267.044 25.8607 267.208 25.8607C267.372 25.8607 267.465 25.9773 267.465 26.0711C267.465 26.2353 267.325 26.2821 267.068 26.2821H265.103C263.957 26.2821 263.395 26.1649 262.857 25.8841C261.968 25.4392 261.196 24.5028 260.05 22.9577C259.232 21.8809 258.367 20.5464 258.109 20.2422C257.992 20.125 257.875 20.1018 257.735 20.1018L255.888 20.0549C255.794 20.0549 255.724 20.1018 255.724 20.2188V20.4995C255.724 22.3492 255.747 23.8941 255.841 24.737C255.91 25.322 256.004 25.6972 256.636 25.7904C256.94 25.8372 257.384 25.8607 257.642 25.8607C257.805 25.8607 257.899 25.9773 257.899 26.0711C257.899 26.2118 257.735 26.2821 257.478 26.2821C256.285 26.2821 254.577 26.2118 254.273 26.2118C253.876 26.2118 252.566 26.2821 251.748 26.2821C251.49 26.2821 251.35 26.2118 251.35 26.0711C251.35 25.9773 251.42 25.8607 251.677 25.8607C251.981 25.8607 252.215 25.8372 252.402 25.7904C252.823 25.6972 252.94 25.322 253.01 24.737C253.104 23.8941 253.104 22.3258 253.104 20.4995V16.9881ZM255.724 18.5332C255.724 18.744 255.77 18.8143 255.91 18.8844C256.355 19.0248 256.963 19.0716 257.478 19.0716C258.296 19.0716 258.577 19.0013 258.928 18.744C259.56 18.2991 260.261 17.433 260.261 15.7943C260.261 12.9851 258.343 12.2591 257.127 12.2591C256.613 12.2591 256.121 12.2826 255.91 12.3295C255.77 12.3764 255.724 12.4467 255.724 12.6105V18.5332Z" fill="#000D74"/>
<path d="M267.675 26.0243C267.348 25.8842 267.277 25.7904 267.277 25.3454C267.277 24.2687 267.371 23.028 267.395 22.7004C267.395 22.3959 267.488 22.1854 267.652 22.1854C267.839 22.1854 267.862 22.3724 267.862 22.5131C267.862 22.7704 267.932 23.1919 268.049 23.543C268.494 25.0178 270.038 25.5096 271.324 25.5096C273.102 25.5096 274.178 24.3859 274.178 22.9812C274.178 22.1151 273.967 21.2487 272.142 20.1719L270.949 19.4697C268.517 18.0418 267.722 16.7073 267.722 14.9514C267.722 12.5168 270.061 10.9485 272.914 10.9485C274.247 10.9485 275.3 11.1355 275.838 11.2762C276.025 11.323 276.118 11.3931 276.118 11.5335C276.118 11.7911 276.049 12.3529 276.049 13.9215C276.049 14.3427 275.955 14.5534 275.791 14.5534C275.651 14.5534 275.581 14.4365 275.581 14.2023C275.581 14.0151 275.487 13.4063 275.043 12.8913C274.739 12.5168 274.084 11.9549 272.75 11.9549C271.277 11.9549 269.944 12.7275 269.944 14.0854C269.944 14.9749 270.271 15.6771 272.119 16.7073L272.961 17.1754C275.674 18.6736 276.516 20.1954 276.516 21.9978C276.516 23.4729 275.955 24.6667 274.458 25.7206C273.475 26.4229 272.119 26.5395 271.02 26.5395C269.827 26.5395 268.564 26.4229 267.675 26.0243Z" fill="#000D74"/>
<path d="M280.96 16.9881C280.96 13.9681 280.96 13.4063 280.937 12.7744C280.89 12.0953 280.68 11.8614 280.235 11.7207C280.001 11.6507 279.744 11.6272 279.487 11.6272C279.276 11.6272 279.159 11.5803 279.159 11.3931C279.159 11.2761 279.323 11.2292 279.651 11.2292C280.422 11.2292 281.826 11.2761 282.41 11.2761C282.925 11.2761 284.258 11.2292 285.053 11.2292C285.31 11.2292 285.474 11.2761 285.474 11.3931C285.474 11.5803 285.357 11.6272 285.147 11.6272C284.936 11.6272 284.773 11.6507 284.538 11.6976C283.977 11.7911 283.813 12.0722 283.767 12.7744C283.72 13.4063 283.72 13.9681 283.72 16.9881V20.4995C283.72 22.4192 283.72 24.0113 283.813 24.8539C283.884 25.3923 284.024 25.6972 284.632 25.7904C284.913 25.8372 285.381 25.8607 285.685 25.8607C285.919 25.8607 286.012 25.9773 286.012 26.0711C286.012 26.2118 285.849 26.2821 285.615 26.2821C284.258 26.2821 282.855 26.2118 282.293 26.2118C281.826 26.2118 280.422 26.2821 279.604 26.2821C279.346 26.2821 279.206 26.2118 279.206 26.0711C279.206 25.9773 279.276 25.8607 279.533 25.8607C279.837 25.8607 280.071 25.8372 280.258 25.7904C280.68 25.6972 280.796 25.4158 280.866 24.8305C280.96 24.0113 280.96 22.4192 280.96 20.4995V16.9881Z" fill="#000D74"/>
<path d="M294.415 12.4467L291.35 12.5168C290.158 12.5402 289.666 12.6806 289.362 13.1255C289.152 13.4063 289.058 13.6639 289.011 13.8043C288.965 13.9682 288.918 14.0619 288.778 14.0619C288.637 14.0619 288.59 13.945 288.59 13.7343C288.59 13.4063 288.988 11.4869 289.035 11.323C289.082 11.0654 289.152 10.9485 289.269 10.9485C289.433 10.9485 289.643 11.1123 290.158 11.1823C290.765 11.2527 291.537 11.2762 292.216 11.2762H300.566C301.221 11.2762 301.665 11.2293 301.97 11.1823C302.297 11.1355 302.46 11.0889 302.531 11.0889C302.671 11.0889 302.695 11.2058 302.695 11.51C302.695 11.9315 302.648 13.4063 302.648 13.9215C302.624 14.132 302.577 14.2492 302.46 14.2492C302.297 14.2492 302.25 14.1555 302.227 13.8512L302.203 13.6405C302.156 13.1255 301.618 12.5168 299.77 12.4933L297.174 12.4467V20.4996C297.174 22.3258 297.198 23.8941 297.291 24.7604C297.362 25.322 297.479 25.6972 298.087 25.7904C298.367 25.8373 298.835 25.8607 299.139 25.8607C299.373 25.8607 299.466 25.9774 299.466 26.0711C299.466 26.2118 299.303 26.2822 299.069 26.2822C297.712 26.2822 296.333 26.2118 295.748 26.2118C295.28 26.2118 293.876 26.2822 293.058 26.2822C292.801 26.2822 292.66 26.2118 292.66 26.0711C292.66 25.9774 292.73 25.8607 292.988 25.8607C293.292 25.8607 293.549 25.8373 293.713 25.7904C294.134 25.6972 294.251 25.322 294.321 24.737C294.415 23.8941 294.415 22.3258 294.415 20.4996V12.4467Z" fill="#000D74"/>
<path d="M310.621 21.1083C310.621 20.0315 310.434 19.6101 310.153 19.0248C310.013 18.7205 307.206 14.3427 306.481 13.2893C305.966 12.5636 305.546 12.0953 305.148 11.8846C304.89 11.7442 304.54 11.6272 304.282 11.6272C304.118 11.6272 303.979 11.5569 303.979 11.4165C303.979 11.2761 304.118 11.2292 304.376 11.2292C304.727 11.2292 306.271 11.2761 306.949 11.2761C307.393 11.2761 308.352 11.2292 309.288 11.2292C309.475 11.2292 309.592 11.2761 309.592 11.4165C309.592 11.5803 309.451 11.5803 309.124 11.6741C308.96 11.7207 308.844 11.8145 308.844 11.9783C308.844 12.1422 308.937 12.3764 309.101 12.6572C309.475 13.2659 312.165 17.9245 312.516 18.4863C312.773 18.0183 315.276 13.7574 315.58 13.1489C315.79 12.704 315.884 12.3529 315.884 12.0953C315.884 11.908 315.79 11.7207 315.439 11.6507C315.252 11.6038 315.065 11.5803 315.065 11.4165C315.065 11.2761 315.182 11.2292 315.416 11.2292C316.094 11.2292 316.82 11.2761 317.427 11.2761C317.872 11.2761 319.228 11.2292 319.626 11.2292C319.86 11.2292 320 11.2761 320 11.3931C320 11.5335 319.836 11.6272 319.603 11.6272C319.392 11.6272 319.018 11.7207 318.714 11.8614C318.27 12.0722 318.082 12.2591 317.638 12.7978C316.959 13.5935 314.012 18.3225 313.638 19.1654C313.334 19.8911 313.381 20.4995 313.381 21.1552V22.7469C313.381 23.0749 313.381 23.8941 313.428 24.737C313.474 25.322 313.662 25.6972 314.27 25.7904C314.574 25.8372 315.018 25.8607 315.299 25.8607C315.533 25.8607 315.65 25.9773 315.65 26.0711C315.65 26.2118 315.486 26.2821 315.205 26.2821C313.919 26.2821 312.539 26.2118 311.977 26.2118C311.463 26.2118 310.083 26.2821 309.311 26.2821C309.03 26.2821 308.867 26.2353 308.867 26.0711C308.867 25.9773 308.96 25.8607 309.194 25.8607C309.475 25.8607 309.732 25.8372 309.919 25.7904C310.34 25.6972 310.504 25.322 310.551 24.737C310.621 23.8941 310.621 23.0749 310.621 22.7469V21.1083Z" fill="#000D74"/>
<path d="M15.3073 24.2039H15.112H3.63086V26.2118H15.112H15.3073H26.7873V24.2039H15.3073Z" fill="#000D74"/>
<path d="M30.4503 11.0414C30.1255 9.14977 28.5993 7.83296 26.7317 7.68344C23.3944 7.41441 20.5147 9.20133 17.2772 9.77348C17.0181 9.81892 16.6699 9.267 16.3554 8.95193C17.8567 7.81946 17.6532 5.59905 15.9147 4.64034C15.7949 4.50259 15.8386 3.22413 15.9077 3.16669C16.0482 3.04832 17.1571 3.26111 17.315 3.12419C17.4725 2.98704 17.44 1.65558 17.3396 1.52749C17.2394 1.4003 15.9891 1.53716 15.9194 1.45096C15.8482 1.36567 15.954 0.167287 15.8359 0.0734695C15.765 0.0160265 15.5042 0.00228098 15.3082 0.000180078H15.3273C15.3094 -6.00259e-05 15.2895 -6.00259e-05 15.2696 0.000180078C15.2497 -6.00259e-05 15.2303 -6.00259e-05 15.2125 0.000180078H15.2309C15.0353 0.00228098 14.7741 0.0160265 14.7027 0.0734695C14.585 0.167287 14.6907 1.36567 14.6198 1.45096C14.5499 1.53716 13.3001 1.4003 13.1987 1.52749C13.0986 1.65558 13.0679 2.98704 13.2248 3.12419C13.382 3.26111 14.4913 3.04832 14.6321 3.16669C14.7006 3.22413 14.7446 4.50259 14.6245 4.64034C12.8863 5.59905 12.6822 7.81946 14.1838 8.95193C13.8693 9.267 13.5208 9.81892 13.262 9.77348C10.0245 9.20133 7.14454 7.41441 3.80723 7.68344C1.94016 7.83296 0.413963 9.14977 0.0889209 11.0414C-0.495554 14.4453 1.94808 17.0619 3.1346 19.9518C3.50942 20.8638 3.83883 22.0901 3.7791 23.1443C3.7791 23.1443 13.4673 23.1443 15.1958 23.1446V0.00252094C15.1958 0.00252094 15.224 0.000780337 15.2696 0.000180078C15.3156 0.000780337 15.3443 0.00252094 15.3443 0.00252094V23.1446C17.0722 23.1443 26.7601 23.1443 26.7601 23.1443C26.701 22.0901 27.0298 20.8638 27.4055 19.9518C28.592 17.0619 31.0347 14.4453 30.4503 11.0414ZM13.946 18.5787C13.6465 20.2877 12.6977 21.3727 11.9083 21.3779C11.3902 21.3803 10.9747 21.1848 10.5978 20.8539C10.0781 20.3987 9.65438 19.6496 9.78992 19.207C9.9053 19.0584 11.3056 19.2721 11.4055 19.1323C11.5044 18.9937 11.235 17.9019 11.0764 17.76C10.9176 17.6196 9.65438 17.8075 9.48508 17.6689C9.31525 17.5315 9.1586 16.178 8.98529 16.095C8.98529 16.095 7.64824 15.8946 7.55127 16.086C7.45376 16.2773 8.00255 17.4063 7.90827 17.598C7.81514 17.7914 6.04414 17.4297 6.01338 17.6296C5.98261 17.8293 6.11527 18.8228 6.2845 18.9699C6.45434 19.1177 8.10708 19.1276 8.10708 19.1276C8.45083 19.3902 8.54072 19.923 8.54252 20.4691C8.54546 21.1605 8.00782 21.5186 7.14922 21.2783C5.54866 20.8302 3.56561 17.3562 2.3876 14.9509C1.52288 13.1827 1.00138 10.2899 3.27223 9.42324C4.65702 8.89509 6.10939 9.19491 7.5987 9.63687C9.1592 10.1009 11.2175 10.728 12.4315 11.4821C12.7284 11.6668 12.0772 11.5196 13.1528 13.9075C13.6535 15.018 14.1557 17.3844 13.946 18.5787ZM23.3906 21.2783C22.5326 21.5186 21.994 21.1605 21.9967 20.4691C21.9988 19.923 22.0881 19.3902 22.4321 19.1276C22.4321 19.1276 24.0852 19.1177 24.2547 18.9699C24.4239 18.8228 24.5569 17.8293 24.5255 17.6296C24.4948 17.4297 22.7244 17.7914 22.6304 17.598C22.5369 17.4063 23.0857 16.2773 22.9885 16.086C22.8907 15.8946 21.5542 16.095 21.5542 16.095C21.3806 16.178 21.2237 17.5315 21.0544 17.6689C20.8854 17.8075 19.6213 17.6196 19.4634 17.76C19.3042 17.9019 19.0345 18.9937 19.1337 19.1323C19.2336 19.2721 20.6339 19.0584 20.7495 19.207C20.8854 19.6496 20.4611 20.3987 19.9411 20.8539C19.5642 21.1848 19.1484 21.3803 18.6315 21.3779C17.8421 21.3727 16.8933 20.2877 16.5932 18.5787C16.3838 17.3844 16.8857 15.018 17.3859 13.9075C18.4626 11.5196 17.811 11.6668 18.1085 11.4821C19.3214 10.728 21.3803 10.1009 22.9408 9.63687C24.4298 9.19491 25.8822 8.89509 27.267 9.42324C29.5381 10.2899 29.0163 13.1827 28.1513 14.9509C26.9739 17.3562 24.9911 20.8302 23.3906 21.2783Z" fill="#000D74"/>
<path d="M15.472 0.00256348H14.9663V23.1447H15.472V0.00256348Z" fill="#000D74"/>
<path d="M45.3561 52.7838C43.0896 52.7838 41.6576 52.0811 41.1452 51.7844C40.8216 51.1894 40.4702 49.2711 40.416 48.0012C40.5507 47.8122 40.9563 47.758 41.0646 47.9206C41.4688 49.2982 42.5757 51.9463 45.7075 51.9463C47.9756 51.9463 49.0825 50.4603 49.0825 48.8388C49.0825 47.6503 48.8394 46.3262 46.8686 45.0564L44.3034 43.3806C42.9534 42.4896 41.3882 40.9494 41.3882 38.7336C41.3882 36.1668 43.3854 34.0865 46.895 34.0865C47.7325 34.0865 48.7047 34.2485 49.4061 34.4375C49.7575 34.5452 50.1352 34.5995 50.3504 34.5995C50.5935 35.2479 50.8366 36.761 50.8366 37.8961C50.7282 38.058 50.2963 38.1393 50.1616 37.9774C49.8102 36.6804 49.0825 34.9241 46.4909 34.9241C43.8451 34.9241 43.2785 36.6804 43.2785 37.9232C43.2785 39.4898 44.5743 40.6248 45.5728 41.2461L47.7325 42.5973C49.4324 43.651 51.106 45.2183 51.106 47.7851C51.106 50.7571 48.8658 52.7838 45.3561 52.7838Z" fill="#000D74"/>
<path d="M55.7198 48.3794C55.7198 50.2442 56.1781 51.4869 58.2309 51.4869C58.9586 51.4869 59.8224 51.1894 60.4169 50.6765C60.7683 50.3519 60.9572 49.9467 60.9572 49.1092V44.6776C60.9572 42.922 60.7683 42.8677 59.9586 42.5431L59.6072 42.4083C59.4183 42.3006 59.4183 41.9218 59.6335 41.8141C60.7141 41.7869 62.1988 41.5979 62.7918 41.3275C62.9279 41.3546 63.0085 41.4089 63.0348 41.5166C62.9821 42.0302 62.9543 42.8677 62.9543 43.8672V48.4065C62.9543 50.541 63.0348 51.3521 63.7918 51.3521C64.1154 51.3521 64.4668 51.2979 64.8445 51.2166C65.0056 51.3521 65.0334 51.8921 64.8167 52.0006C63.764 52.2167 62.1988 52.4864 61.2807 53C61.146 53 61.0113 52.9187 60.9572 52.811V51.7031C60.9572 51.4598 60.8752 51.325 60.7141 51.325C59.9044 51.8379 58.5808 52.7297 56.9878 52.7297C54.6129 52.7297 53.7212 51.5412 53.7212 49.3525V44.8403C53.7212 43.1381 53.7212 42.8948 52.9115 42.5431L52.5879 42.4083C52.4254 42.2735 52.4532 41.8947 52.6421 41.8141C53.8837 41.7869 54.9365 41.5437 55.5309 41.3275C55.692 41.3546 55.774 41.4088 55.8003 41.5166C55.7461 41.976 55.7198 42.5431 55.7198 43.8672V48.3794Z" fill="#000D74"/>
<path d="M81.9282 45.4073C81.9282 43.5703 81.1171 42.6244 79.4172 42.6244C78.3908 42.6244 77.5547 43.0838 77.177 43.5703C76.8519 43.9755 76.7714 44.2452 76.7714 45.1912V49.3253C76.7714 51.2707 76.8256 51.5411 77.7978 51.6759L78.3644 51.7572C78.5533 51.8921 78.4991 52.3515 78.3103 52.4328C77.5006 52.3786 76.7172 52.3515 75.7728 52.3515C74.8006 52.3515 74.0715 52.3786 73.316 52.4328C73.1271 52.3515 73.0729 51.8921 73.2618 51.7572L73.7479 51.6759C74.7465 51.514 74.7743 51.2707 74.7743 49.3253V45.4073C74.7743 43.5975 73.9631 42.6244 72.2896 42.6244C71.1827 42.6244 70.4271 43.1109 70.023 43.5975C69.7522 43.9213 69.6175 44.2723 69.6175 45.1369V49.3253C69.6175 51.2707 69.6716 51.514 70.6438 51.6759L71.1299 51.7572C71.3188 51.8921 71.2647 52.3515 71.0758 52.4328C70.3466 52.3786 69.5633 52.3515 68.6189 52.3515C67.6467 52.3515 66.837 52.3786 65.9995 52.4328C65.8106 52.3515 65.7564 51.8921 65.9468 51.7572L66.5939 51.6759C67.5925 51.5411 67.6203 51.2707 67.6203 49.3253V44.5969C67.6203 43.5432 67.6203 43.4077 66.8912 42.9219L66.6481 42.7592C66.5398 42.6515 66.5398 42.354 66.6745 42.2734C67.2953 42.0572 68.8341 41.3545 69.3744 40.9493C69.4827 40.9493 69.6175 41.0036 69.6716 41.1384C69.6175 41.7597 69.6175 42.165 69.6175 42.4082C69.6175 42.5702 69.7258 42.7057 69.9147 42.7057C70.9396 41.9759 72.209 41.3274 73.5048 41.3274C74.8548 41.3274 75.6103 41.814 76.3658 42.9219C76.6089 42.9754 76.7978 42.8676 77.0408 42.7057C78.1214 41.9488 79.4435 41.3274 80.713 41.3274C82.8726 41.3274 83.9254 42.8134 83.9254 44.6775V49.3253C83.9254 51.2707 83.9796 51.5411 84.9518 51.6759L85.5989 51.7572C85.7878 51.8921 85.7336 52.3515 85.5448 52.4328C84.6545 52.3786 83.8712 52.3515 82.9268 52.3515C81.9546 52.3515 81.2254 52.3786 80.4699 52.4328C80.281 52.3515 80.2269 51.8921 80.4157 51.7572L80.9019 51.6759C81.9004 51.514 81.9282 51.2707 81.9282 49.3253V45.4073Z" fill="#000D74"/>
<path d="M103.167 45.4073C103.167 43.5703 102.356 42.6244 100.656 42.6244C99.6301 42.6244 98.794 43.0838 98.4162 43.5703C98.0912 43.9755 98.0107 44.2452 98.0107 45.1912V49.3253C98.0107 51.2707 98.0648 51.5411 99.0371 51.6759L99.6037 51.7572C99.7926 51.8921 99.7384 52.3515 99.5495 52.4328C98.7398 52.3786 97.9565 52.3515 97.0121 52.3515C96.0399 52.3515 95.3107 52.3786 94.5552 52.4328C94.3663 52.3515 94.3122 51.8921 94.501 51.7572L94.9872 51.6759C95.9857 51.514 96.0135 51.2707 96.0135 49.3253V45.4073C96.0135 43.5975 95.2024 42.6244 93.5288 42.6244C92.4219 42.6244 91.6664 43.1109 91.2623 43.5975C90.9914 43.9213 90.8567 44.2723 90.8567 45.1369V49.3253C90.8567 51.2707 90.9109 51.514 91.8831 51.6759L92.3692 51.7572C92.5581 51.8921 92.5039 52.3515 92.315 52.4328C91.5859 52.3786 90.8025 52.3515 89.8581 52.3515C88.8859 52.3515 88.0762 52.3786 87.2387 52.4328C87.0499 52.3515 86.9957 51.8921 87.186 51.7572L87.8332 51.6759C88.8318 51.5411 88.8596 51.2707 88.8596 49.3253V44.5969C88.8596 43.5432 88.8596 43.4077 88.1304 42.9219L87.8874 42.7592C87.779 42.6515 87.779 42.354 87.9137 42.2734C88.5345 42.0572 90.0734 41.3545 90.6137 40.9493C90.722 40.9493 90.8567 41.0036 90.9109 41.1384C90.8567 41.7597 90.8567 42.165 90.8567 42.4082C90.8567 42.5702 90.9651 42.7057 91.1539 42.7057C92.1789 41.9759 93.4483 41.3274 94.7441 41.3274C96.0941 41.3274 96.8496 41.814 97.6051 42.9219C97.8481 42.9754 98.037 42.8676 98.2801 42.7057C99.3606 41.9488 100.683 41.3274 101.952 41.3274C104.112 41.3274 105.165 42.8134 105.165 44.6775V49.3253C105.165 51.2707 105.219 51.5411 106.191 51.6759L106.838 51.7572C107.027 51.8921 106.973 52.3515 106.784 52.4328C105.894 52.3786 105.11 52.3515 104.166 52.3515C103.194 52.3515 102.465 52.3786 101.709 52.4328C101.52 52.3515 101.466 51.8921 101.655 51.7572L102.141 51.6759C103.14 51.514 103.167 51.2707 103.167 49.3253V45.4073Z" fill="#000D74"/>
<path d="M110.152 45.4345C109.45 45.4345 109.423 45.4887 109.423 46.1643C109.423 48.893 111.016 51.2165 113.904 51.2165C114.795 51.2165 115.552 50.9469 116.388 49.8925C116.658 49.8119 116.847 49.9738 116.874 50.2171C115.983 52.0541 114.039 52.7297 112.635 52.7297C110.881 52.7297 109.504 51.9735 108.721 50.9469C107.911 49.8925 107.588 48.6227 107.588 47.4342C107.588 44.1105 109.774 41.3275 113.014 41.3275C115.335 41.3275 116.847 42.922 116.847 44.5428C116.847 44.9209 116.793 45.137 116.739 45.2455C116.658 45.4074 116.279 45.4345 115.146 45.4345H110.152ZM111.825 44.6241C113.824 44.6241 114.417 44.5157 114.634 44.3537C114.714 44.2995 114.795 44.1918 114.795 43.8401C114.795 43.0839 114.282 42.1379 112.717 42.1379C111.124 42.1379 109.748 43.5975 109.72 44.4885C109.72 44.5428 109.72 44.6241 109.909 44.6241H111.825Z" fill="#000D74"/>
<path d="M119.975 44.5969C119.975 43.5432 119.975 43.4077 119.246 42.9219L119.003 42.7592C118.896 42.6515 118.896 42.354 119.031 42.2734C119.652 42.0572 121.082 41.3545 121.757 40.9493C121.892 40.9765 121.974 41.0299 121.974 41.1384V42.7057C121.974 42.8405 122 42.9219 122.054 42.9483C122.999 42.165 124.025 41.3274 125.024 41.3274C125.699 41.3274 126.239 41.7597 126.239 42.4082C126.239 43.3 125.51 43.6509 125.078 43.6509C124.807 43.6509 124.672 43.5703 124.483 43.4619C124.079 43.1915 123.674 43.0296 123.296 43.0296C122.864 43.0296 122.54 43.2729 122.324 43.5703C122.054 43.9484 121.974 44.7317 121.974 45.6506V49.3253C121.974 51.2707 122.026 51.5946 123.053 51.6759L124.025 51.7572C124.214 51.8921 124.16 52.3515 123.971 52.4328C122.701 52.3786 121.92 52.3515 120.974 52.3515C120.003 52.3515 119.192 52.3786 118.49 52.4328C118.302 52.3515 118.247 51.8921 118.436 51.7572L118.95 51.6759C119.949 51.514 119.975 51.2707 119.975 49.3253V44.5969Z" fill="#000D74"/>
<path d="M139.084 52.7838C136.816 52.7838 135.385 52.0811 134.873 51.7844C134.549 51.1894 134.198 49.2711 134.144 48.0012C134.278 47.8122 134.684 47.758 134.791 47.9206C135.196 49.2982 136.303 51.9463 139.435 51.9463C141.702 51.9463 142.809 50.4603 142.809 48.8388C142.809 47.6503 142.566 46.3262 140.596 45.0564L138.031 43.3806C136.681 42.4896 135.116 40.9494 135.116 38.7336C135.116 36.1668 137.113 34.0865 140.623 34.0865C141.46 34.0865 142.431 34.2485 143.134 34.4375C143.484 34.5452 143.861 34.5995 144.078 34.5995C144.321 35.2479 144.564 36.761 144.564 37.8961C144.456 38.058 144.024 38.1393 143.889 37.9774C143.538 36.6804 142.809 34.9241 140.217 34.9241C137.571 34.9241 137.005 36.6804 137.005 37.9232C137.005 39.4898 138.3 40.6248 139.299 41.2461L141.46 42.5973C143.16 43.651 144.834 45.2183 144.834 47.7851C144.834 50.7571 142.593 52.7838 139.084 52.7838Z" fill="#000D74"/>
<path d="M149.42 45.4345C148.717 45.4345 148.691 45.4887 148.691 46.1643C148.691 48.893 150.284 51.2165 153.172 51.2165C154.063 51.2165 154.818 50.9469 155.656 49.8925C155.925 49.8119 156.114 49.9738 156.142 50.2171C155.25 52.0541 153.307 52.7297 151.903 52.7297C150.149 52.7297 148.771 51.9735 147.989 50.9469C147.18 49.8925 146.854 48.6227 146.854 47.4342C146.854 44.1105 149.042 41.3275 152.281 41.3275C154.603 41.3275 156.114 42.922 156.114 44.5428C156.114 44.9209 156.061 45.137 156.007 45.2455C155.925 45.4074 155.547 45.4345 154.414 45.4345H149.42ZM151.093 44.6241C153.09 44.6241 153.685 44.5157 153.9 44.3537C153.982 44.2995 154.063 44.1918 154.063 43.8401C154.063 43.0839 153.55 42.1379 151.983 42.1379C150.392 42.1379 149.014 43.5975 148.988 44.4885C148.988 44.5428 148.988 44.6241 149.177 44.6241H151.093Z" fill="#000D74"/>
<path d="M164.263 41.8141C164.506 42.4083 164.695 43.2729 164.695 44.0027C164.587 44.1918 164.183 44.2453 164.047 44.0833C163.588 42.8948 162.779 42.1108 161.672 42.1108C160.619 42.1108 159.944 42.7864 159.944 43.7595C159.944 44.8674 161.077 45.4616 162.023 46.0017C163.454 46.8128 164.776 47.7309 164.776 49.65C164.776 51.7031 162.887 52.7297 160.888 52.7297C159.62 52.7297 158.675 52.4593 158 51.9192C157.784 51.4056 157.622 50.0823 157.676 49.1905C157.811 49.0279 158.162 49.0008 158.297 49.1634C158.757 50.6494 159.62 51.9464 161.159 51.9464C162.13 51.9464 162.968 51.3792 162.968 50.2171C162.968 48.9744 161.887 48.2988 160.888 47.7309C159.323 46.8392 158.216 45.8939 158.216 44.4079C158.216 42.4354 159.836 41.3275 161.887 41.3275C163.022 41.3275 164.02 41.5979 164.263 41.8141Z" fill="#000D74"/>
<path d="M173.25 41.8141C173.493 42.4083 173.682 43.2729 173.682 44.0027C173.574 44.1918 173.17 44.2453 173.033 44.0833C172.575 42.8948 171.765 42.1108 170.659 42.1108C169.606 42.1108 168.931 42.7864 168.931 43.7595C168.931 44.8674 170.064 45.4616 171.01 46.0017C172.44 46.8128 173.763 47.7309 173.763 49.65C173.763 51.7031 171.874 52.7297 169.875 52.7297C168.607 52.7297 167.661 52.4593 166.986 51.9192C166.771 51.4056 166.609 50.0823 166.663 49.1905C166.798 49.0279 167.149 49.0008 167.284 49.1634C167.743 50.6494 168.607 51.9464 170.146 51.9464C171.117 51.9464 171.954 51.3792 171.954 50.2171C171.954 48.9744 170.874 48.2988 169.875 47.7309C168.31 46.8392 167.203 45.8939 167.203 44.4079C167.203 42.4354 168.823 41.3275 170.874 41.3275C172.009 41.3275 173.007 41.5979 173.25 41.8141Z" fill="#000D74"/>
<path d="M176.946 44.5969C176.946 43.5433 176.946 43.4077 176.217 42.9219L175.974 42.7592C175.865 42.6515 175.865 42.354 176.001 42.2734C176.622 42.0573 178.161 41.3546 178.782 40.9494C178.917 40.9494 179.025 41.0036 179.051 41.1113C178.997 42.0573 178.943 43.3542 178.943 44.4621V49.3253C178.943 51.2707 178.997 51.5411 179.969 51.6759L180.536 51.7573C180.725 51.8921 180.671 52.3515 180.482 52.4328C179.672 52.3786 178.889 52.3515 177.944 52.3515C176.972 52.3515 176.162 52.3786 175.407 52.4328C175.218 52.3515 175.164 51.8921 175.353 51.7573L175.919 51.6759C176.918 51.5411 176.946 51.2707 176.946 49.3253V44.5969ZM179.186 36.8959C179.186 37.8689 178.511 38.3013 177.756 38.3013C176.918 38.3013 176.379 37.6799 176.379 36.9501C176.379 36.0584 177.026 35.4912 177.836 35.4912C178.646 35.4912 179.186 36.1397 179.186 36.8959Z" fill="#000D74"/>
<path d="M192.872 46.9205C192.872 50.2977 190.551 52.7297 187.176 52.7297C184.072 52.7297 181.642 50.541 181.642 47.1638C181.642 43.7595 184.207 41.3275 187.391 41.3275C190.416 41.3275 192.872 43.5975 192.872 46.9205ZM187.068 42.1379C185.286 42.1379 183.964 43.8401 183.964 46.8128C183.964 49.2711 185.071 51.9192 187.446 51.9192C189.822 51.9192 190.551 49.4331 190.551 47.3528C190.551 45.0564 189.633 42.1379 187.068 42.1379Z" fill="#000D74"/>
<path d="M195.648 44.5969C195.648 43.5432 195.648 43.4077 194.919 42.9219L194.676 42.7592C194.567 42.6515 194.567 42.354 194.704 42.2734C195.324 42.0572 196.863 41.3545 197.402 40.9493C197.51 40.9493 197.645 41.0036 197.699 41.1384C197.645 41.7597 197.645 42.165 197.645 42.4082C197.645 42.5702 197.753 42.7057 197.942 42.7057C199.076 42.003 200.345 41.3274 201.721 41.3274C203.963 41.3274 204.88 42.8676 204.88 44.6775V49.3253C204.88 51.2707 204.934 51.5411 205.906 51.6759L206.5 51.7572C206.689 51.8921 206.635 52.3515 206.446 52.4328C205.637 52.3786 204.853 52.3515 203.909 52.3515C202.937 52.3515 202.127 52.3786 201.398 52.4328C201.209 52.3515 201.155 51.8921 201.344 51.7572L201.858 51.6759C202.856 51.514 202.882 51.2707 202.882 49.3253V45.2996C202.882 43.7594 202.181 42.6244 200.345 42.6244C199.319 42.6244 198.428 43.0567 198.051 43.5703C197.699 44.0298 197.645 44.4079 197.645 45.1912V49.3253C197.645 51.2707 197.699 51.514 198.671 51.6759L199.158 51.7572C199.346 51.8921 199.292 52.3515 199.103 52.4328C198.374 52.3786 197.591 52.3515 196.647 52.3515C195.674 52.3515 194.865 52.3786 194.109 52.4328C193.92 52.3515 193.866 51.8921 194.055 51.7572L194.622 51.6759C195.62 51.5411 195.648 51.2707 195.648 49.3253V44.5969Z" fill="#000D74"/>
</g>
<defs>
<clipPath id="clip0_2804_5801">
<rect width="320" height="53" fill="white"/>
</clipPath>
</defs>
</svg>
